<mxfile host="Electron" agent="Mozilla/5.0 (Windows NT 10.0; Win64; x64) AppleWebKit/537.36 (KHTML, like Gecko) draw.io/25.0.2 Chrome/128.0.6613.186 Electron/32.2.5 Safari/537.36" border="50" scale="3" compressed="false" locked="false" version="25.0.2">
  <diagram name="Blank" id="YmL12bMKpDGza6XwsDPr">
    <mxGraphModel dx="2791" dy="931" grid="0" gridSize="10" guides="1" tooltips="1" connect="1" arrows="1" fold="1" page="0" pageScale="1" pageWidth="827" pageHeight="1169" background="none" math="1" shadow="0">
      <root>
        <mxCell id="X5NqExCQtvZxIxQ7pmgY-0" />
        <mxCell id="1" parent="X5NqExCQtvZxIxQ7pmgY-0" />
        <mxCell id="KVqwcnw02ynMnZTjOd9f-1" value="" style="shape=image;verticalLabelPosition=bottom;labelBackgroundColor=default;verticalAlign=top;aspect=fixed;imageAspect=0;image=data:image/png,iVBORw0KGgoAAAANSUhEUgAABF0AAAItCAYAAADrFQWpAAAAAXNSR0IArs4c6QAAAARnQU1BAACxjwv8YQUAAAAJcEhZcwAAEnQAABJ0Ad5mH3gAAKdsSURBVHhe7P1/dFTlvf/9v7zbhTbBSaQBosBJQoAeBEQUf4CIh08aKyvc9dagKBxJexdETqFW23JYAi6XgIti1VqxCtJPCxZalOjXLrKwTXM4ooI/QIyinGJCJgdoAqSQjCSi9/Hj94+9Z2bva+9JZsLsJMDzsVaWzr6u2T+uvWcz+z3X9b7Oy8vL+0oAAAAAAABIq//LXAAAAAAAAIDTR9AFAAAAAAAgAARdAAAAAAAAAkDQBQAAAAAAIAAEXQAAAAAAAAJwWkGX0IytumZJ/C//CrMGzmgTZ2roC09qQJlZkKxhyln7pEaf1jq6w40a8MKTGrpgmFnQc9jnZvQL96m3WdbNeq+0znl3tN/sh44pvKlVs82CLtZ75ZMavXamepkFPUYP/myW3afRL/T09jtXcW88HV16byxq1QevHtPGIrMAAAB0tdMKukQ2TNbbSyfr7d+8q5NmIRLqtWBpj/xCeM447WBScHrsw3oPbrOYOS1adG2bav4jU8+ZZWnGeUrVGfCwjh59nnruv5s9tM2qMrX1QJvG/6xFPzfLAABAlzqtoMvZIvrrU+yvJz5Mnbb4L9ujV95oFgZkv5pm3avq2+/V4XVmWaq6Y/97sO3r9cnt96r69id6XMDz5ALrnH+ycr9ZFJyiVn1wS7Mibw3Ut1ebhfBK52czzdY9oerb71X1rPX6wizrDtGeN8ZfT3rItgISPbN3R5fj3hjz7/82UDtamjWtB/T+AwDgXHaOB12sX6gK88Oqvd36MlR9+72qXi/17UFfqNNi4rW6KBTR4V1hKX/EmffF/EzffwTq56VNCrXk6KmHvmYWAWkQ0eFVjn8jKsLKGPvDHhJ4GabQsJDadu1Wk/KV1eN6OaH7fE3T1+QoktWk+Q99aRYCAIAucl5eXt5X5sKYK1bpmpLC+OsD5Xp7w1pnDcslD2vED65Sa8Vkhd8zCyVpkvrPX6D87PiSk++s1Ed/3uasFFtP/IG6VvuWzlPEVUk6/zubdfnVmfEFifarA71XRgMu7fwiNnGmhs67Um0V7l+Ee698UoV9dmuf69fYGzXghRLlxF5HdHjVEjVt9yszeffD2r/467ZdT8d/ISu7T6NLpNpV/9DF865UhsKqvb1CF6z9oQaEJIUrVL3gL7H39lqwVMOHfaJ9sxrV94USyTgei/8+NkXrJr3NYcqJLpOMdogz9ym6XddxJqjr2f8kzlMvoz1NseO02yFj19Oq110aPjZ6IN5zlMyx9l75pApVoeotuRo670pl2Mtj27P3PbrcI+K4zsy6zjKPjvfNW8fd/uY1aIq3mbeus8zNvM68+9VhmzkVteqDnzXp6Mt5iXu5mO3m2Wb8nDuvvV4Llmr42OPWefesw+A4F7Hrbr2U19H+l92n0SWOhuvgs+v3OTHb3hTfrnm+zXYwdLBv8tu2o47Vfo6Ly+C9p7W/rShzm+Y9I5k2S1rZfRpd0sdoJ7sdjxv7aB6D7z3Dp118jzXJczVxpobOG6oTq5bo1BT7c+NcVxL3Rpn7Y4i3Wyr3Ru9xmu3f8efcvFeYHNs1P5/t3hs73jdv+7vrmO83tff59L0P2My65n513GZeP/91vaYNztamm7L072ahJKlMvyj/rgoi7+mX31+u181iAABwWhIGXUIztmr4YOmIM5ByxSrla543sNJB0CU0Y7O+sW2qjvzdXmAHc1yBF3sdMpdN+m995AioWAEXKfyb+PrO/85mXXxsqu+2E7O/zPl+2XVI4gur9aXOb303asDaXB0zvvi5HuQcy+Psdfk9bEfXbz8ItEWOq2HWR8p6oUQZkYi0/3n7y7Bz/daXx4v2W1/eYl/afL6Yy/kFzzz2lLZp831gscS/tDoeJuyHFvcXyOT3v+PzlLhunOOLfuwc+D1kec+5dUxyHW/8S3T8AcGvXqyuub8JtFs3er24HjyGKWfltYosiNfvvXKpLtji2Ae7/c0v+h23mUN7dX3WH70O/AM4HbfZ7IeOadG1vdp5oPB+Dq31e4Oi7QZdYks7aHvX/se34bcu7zEluqaS+Zx00Pamdj6bchyDaxtl92mAnoi97rVgqfoeWRIvN+9TMf7t68/vsxaVxL0x1TbriG87+ezjxJkaOqVRn8T2OfrQ7g5IeM+5TzsmvA6813+vBdEA03p9EQ2MO6/XBNeE/zXc0XlK9t4YvX68QRHnvzGpfM79Pj+J+B9bVPS8uINYvRbcp9BbTzju20neGztsM4cE58KS3LWdSpvFzGlR+JZm1SQKTH//FyqfUiCpVe/9aqaWv2ZWAAAAp8N/eNElD2uQGXCRpPd8Ai5JiGxwBFwk6b1yhZul3sMm6fzostw+6q1WNX3o6P3y9wddARdJOj8nU2r+WM2O9X3+51QDLpLKRihHUtNH5pf6TpqYqwzP+v6iw75f+trXa8H1ylFYtc73bl+v+l0RKf965UyMLgxJ+ytiX0Az9InqY1/6+uiCaD17aM6Jt6yykx95h+j0nmI9oMffn0iS20xBU4Xji+K6j9QkKaO/o9t+EvsfCFfAYr8i+yOu7cbOk+NB44uVz+twJKQBU8y8MxEdXhV/WPjirU/UppDOLzCqpUn0fLofOvaryRFwkaSTC4wv6esqdDgiZQy7NoC8RsOUc32+FK5wPZxYbSblXG/mUkqmzb7UpOFt0oELEgRc5Ps5PLllt9oU0kXXBjk8xP1QZ+2/c/jHjeo7NqS2Xc87zsFfdLgibHzOLR1+TtJp4kxdbAZcZOVbcb7+YqUzUGDdpxrCCuzzmfy90RJUm/VacJf10L7Fcb/fvt4RcJH1eXs9LBlDfnrlhKTIJ4o4PndmOyZ/b7GHFu1/y2qPdR91zRCjDu6N8evHESCxz1PG2BLj2kjmc55GZSWegIskfbEyHnBRl98bU722U2yz1ReoRlK/ixMMMfrth6qTpMjftJ2ACwAAaecbdDl/1KXqrVodTzWQkbRt+uy4sajxuE4qU/k/2Kz+lxhlDp83tUrZV+ny+Q/HAzY9wfZGtUnKKTndmUOsL9GK/MMTrPF+sYoHIiRJxxs975GkXtcOVYbzS37dPzwPf1n5in9xb1dy20xeWC2eX/zcOt7/YLTfHvZ5Cn9k/Oq6X6eOS+qT6/5ibjxkBSuV82my9z8IE6/VRSGprSlsFNgPbaFvdqLN/kf9sqTI0a+bBe2zP6+B6mj/y0Yox/w8KXp9mw9QHX9O0qnXtUOV0cltftFkDghNl1TujUpzm4U0YF48ia7VMytBrwKnun94rrMvmiJS6EoNT5iwPYV7ixGQlsL6PCLljDCDvunV0b0l0fXzxZHj3uB8R5+TNOs9Ir+T2wzw3pjqtZ3y/n9dR1ukUL//MQts6/TT0lKVMrQIAIBA+AddcjKl5uP63CzorEse1oglW3WN42/4YKPO3x/UR0vLdUSZyv9BtN4qmSOmP//zVL1dUWsFXqLrmzHLqNUd/qLDtz9t/WJfEv1yvtTzy2vS2glmpPZLrf1lzrm+7W/phG/Pgp6op+5/vs4PScov8cxq0l5ujS5h97pqO9JRryW7+3oX73/i/epcT6lk9IrN7hL9ay9PRNfo1b+P52F+9AtPanR7eWO6iNUbw/sA6HWjBhjXT3t5LtIibffGVETciXRX7VZGiXcmtd7mTHg+5/KLlUtUXRG2Ai/Req71JH9vsYIbx3Uq9gAe7XVi9ozoWr1yQpLyVWjsvzvfTXcYpgv6tH8NxXTDvbG9/Qru2gYAAEHzDbpYvUn6pKcnSTQ57oFyvb10cuxv3wGzoiStVThap6JWUqGG+wRe9N4893oGl6YeeLF/gUzvL4LxaVirV1nDFwbMO43ASwKJH1p92L0L3F/g7eSAoaEKpXnf0q7H7r/1i7LCFfEHMedfJ4aVpY3di6PDL+nOfAGOfa81O6J0GefDY/o4c8bEj7NCTWbFLmb96m88zDv+vDkfuo7VG8PoeeThyEHh2O99u4Lq6dKxlO6Np8Nn2Ec8T5DjPK7a7enpIjmmxY5+3vJLHIGXZO8tdkDaCG5YQa+gh861z+rtZMwKGPtLoodQYHx6C/npcffGLry2AQBA2vkHXY41SipUnyvMktRZQ5VaFd6W4uxC782zAy+5+kY7w40iG+zAS59/Si1IZPeW6FzuAWv4Rru2r9cnduDFHGft28U6xmd8vC1Rl+32RN/j+fJr75v1xdz6kp+R4z6o3lO8v9J2teT2P5EE5ynZoES7kvzynqLkHnY7Yp/PDnIPWG1r5KVIJB1tFu2h5Al0JhpOkYyOus1Hu+3v1rEUPjeW6EOtV1rOk+8wotOUjvMUu0d1MIQvmhfr9WQCjP73mNSk997oVPZYucrLy7V+4fVmUQeigUL7XhN+PeWAwskF9sN87F6S5L3FDki7g4n3qtrucdn+5z/BvTEt56mjf+M6J13rtD677QfsU7o3pqXNgru2LR0NwyzTL8rLVf7bRUr1EwAAADrmG3SJJrrtX2LkV7lilfJTDMRYAZxM5YyaZC+ZpP7zvcOLzv/OZs+6Q8MLJTXqs1jS3EnqP9/s+TJLfQZLOv7fKQ6H2q+m9bvVpnwVvnCf+4vOxJkasMB+aInmaok9KDpmb3Aqu09Do++xRb+4fV7nWhx72PImW7V8sfJ1NSlfhc4u5xNnKm9sSG274klsO9bOw6z9AGx9Mfd2Se+1YKkK+0T8f6XtMsnufwrnSYp/SfYkdEzNyS271Ra6UsONIQanI/qwe7FxLaXGTuDp2bdhylkZH5JlbcsZuBqmnLWJutCno83s/covceU98k1KmrSvadu+DGnwKf3cLJLiD7DOh6yJMzXUc22YgSrvdLFOaTlPdtLZnJJ09oZLx3mKJw317FvZffFz59NbsPfKRMOL7PNwmsNe0ndvdCrTKPuaz/zWxOQeOu1txu9Ndu8U50Nz2X0+w4uGKWet8e9NNADiGFqSzL0l8cN4NEeSfc2ndG9Mz3myrp+QBswzj/U0dPDvZrKsa8i7b70W3Bc75tTujelps2CubducUxoi6WjD18wSy/dHqUCSQt/SxBvMQgAAcLoSThktx7TRMQfK9XZsNqFZyl9Sqv6O4rha7Vs6T9FO5tY0z5mx0iMVk3V8+FYN7/Ou3n/qwViwxLO9Zne5xbtd19TTKfN5uDJnfYl2NbZfNlXcq2P9HdN02svj05RGuacKdbGnn4wz63q/GJtTt8anMXVPLxqbPrLyE11UnGh6Su80k/GpKO2u7QukAS+USMaU0e1uc9USNcndXi6OtvWfAtQx/eZb17YzvaZ3/5M9T5b22td/CtD29td8gPFMf2xOX9rO1KGe68jTZn4PtfJOZWq0hzmbjnzW11Rxr1pG+Oyv5HusZpuZ7WAxru0Or/0U26yoVR/8rElHE02H6vmMh1V7uz3luavN3MfQtutpfXKkxDsFr81sO+d5SmX/PeuR3zn3v+7Ma9RZ5nuePNeEg3nfc01PazOngjbOZduupxNPH+85D+5r1rMtB/csSu0cny3VNit7rFzfzZda3/2lZq4wUol6rleLuU3PfkV2a996Kc9zzr377/nsSr71FNuu/zTNMeb0zCndG9s7T/5t6N/eCc6pOf1xkp8Tye9cmNMmJ3lvbPcYLeb62r83trc+//NoMe993rrmdZZym0n6+a/rNe2bOVo+LVPPmYWS3dPluyqIvKdfkkwXAIC0azfoAgBngp//ul7TBmdr001Z7UwdDQDnmA6D0gAAIGj+w4sA4Azy7+U5iqhZ036d2iBDADh7famNdzcp1JKjTQRcAADoNgRdAJz5qjJ12cvZ0uBGffDQl2YpAJxzfv7rQxqfla1NCYcVAQCArkDQBcDZYXWWlr+VodDwU5ptlgHAuaSoVZMHZ2jHowy5BACgu5HTBQAAAAAAIAD0dAEAAAAAAAgAQRcAAAAAAIAAeIIuBQUFuuCCC8zFAAAAAAAASIEn6AIAAAAAAIDTR9AFAAAAAAAgAARdAAAAAAAAAkDQBQAAAAAAIAAEXQAAAAAAAAJA0AUAAAAAACAABF0AAAAAAAACQNAFAAAAAAAgAARdAAAAAAAAAkDQBQAAAAAAIAAEXQAAAAAAAAJA0AUAAAAAACAABF0AAAAAAAACQNAFAAAAAAAgAARdAAAAAAAAAkDQBQAAAAAAIAAEXQAAAAAAAAJA0AUAAAAAACAABF0AAAAAAAACQNAFAAAAAAAgAARdAAAAAAAAAkDQBQAAAAAAIAAEXQAAAAAAAAJA0AUAAAAAACAABF0AAAAAAAACQNAFAAAAAAAgAOfl5eV95VxQUFCghoYGnTp1yrm4RwvN2Krhfd7V+089qM/NwmRdsUrXlBQ6FtRq39J5ijiW9DT3rHlUt+Xs0SO3blSVWdgjDNEjL83RNVlSzeafac4zZvkZZE6LwrdIm27K0r+bZWkxS5NfWqSxWdHXEe1aMVpbK921XIo3aP7C8cqOLUjiPTh9gV8LAAAAAM4W9HRRPOBy8p2VenvpZPuv+wMu96x5VFUvTVeRWdDdiqfrlapHtXquWdD9AmmzolZ9cEuzIm/1DvAhe6223lqgpUUFWrq5xiz0igZcajdZ7ykq0NIiAi6nK3dZtZZUVWqMWeC0urd2tDRr2qZWzTbLAAAAAMCBoIuk0PBCSbU6+OdtZhFOS40euPVnKio6k3u5fK6//qxJoQO5uuyhr5mF3Sb3hpHKVkS7XlxoFiFwX9P0abmqyWrSol93um8dAAAAgHMAQZeo5uOdH5qEs9bshyIaomxt+rfzzaIe4Kga6dnSTc7Xt1/OlgY36q9zzDIAAAAAsJyROV3O/85mXX51pnths5nTZZL6z1+g/FjCi1aFfzNVR/4eqxCTlpwwsofdLByj3rEFn+rtFQ/rgdiDcZFWV92k3J2rdfPi+BCSomUP6oFxx/Vi0So961mHoSWewyWW0+UZ6UeO9/jmT5k7T1VT8+Kva19V0d3xTDBFyx7UA5fW6JFbj+j2qps0xF5+0rGv96x5VLc5094Y4tuN53KxmO1g6GDf5LdtZ50U2sxinYfoMUr1VtvHXkd9rr++2qh+bw1sp5fLCt1VNU35sdeJ8qqY9Wq0pahYe1x1bHMrtWRqvwTrseQuq9bscUcTryON4tvapFxn3pmWHXru1hlqdFaeW6klU+Mtq9pNWnq32RvHbAtLeHOBnrev2zFr6jQlx1i/PaSq2VFPsf0LxV4371yupxavjVeQfLbpPE9mmSnRufpSGzcd0njlaPm0TD1nFkvSDYu0/kdXKDP8J5X+ZJ1ZCgAAAOAsd8b1dAnN2KrLr27Uvljulcnad8CsNUv5SxYo/3h5rM7770j5P9is/pdYNc7/zmZds2SrrlmyVcMHS8q+Spfbr69ZslUjvjPJXGkHirR6rvSrIms4TVHRz/Ri7YW6ZuGDeqTYrNuOyo26OfZ+O2DgWGeRmTQ3a4weWDhEH62wyh/Z+amGTJ2nexxVipY9qKqpffS2Xaeo6FXVFN6kqjVG5pOsMXqg6jr9I1pvc716j5sTy93y7N328hV7dNIOssT2yzWEKD6sqGhzvWMDXveseVRVU/Pc69oz3JUvpmjZgxqzx1G+Yo9OOvc/lTYrnq5X7MBXtPzF2jzdVuVuM0nSnFMaogztfb2DgIsrr8pW5czdoFxnteINml81Tdk7l8fqbakdoikd5Q4xza3Ukqo6Lamqs4MMQzTFfr2kqk5L1qww35FGQzSlapGGfBw9hk0KZ43XbMc2c5dV28GiaFtsUrhwmnu/fNpi6Yodao7XSMmYNXV2QCi+Lo1bpPnLZjlqdXSeFup5e/lzOyN2kCVar0BLfQMukvQ1bduXIWW1aVKCJELXj/uWMiUpf5TKzEIAAAAAZ70zK+hyycMaNFg6UtF+ktvzv3OT+qtW+zbEf+3+/M9PK9ycqfxJ1sPY53+e6g7aNL+r9x2BnI9Szu9SpTlGQOTZF/fopC7UiBscv/ynnbsXSdVrNTqpPI2JBS2KdPu4C3Vy50ZHT5MqzdlcLxVe5wkI1Wx29Eh5Zp9qJOUOCGj/i6drcqFPz5xnVrleVy1+2F1euVFbayUVDvcGSjpwz21j1Ltlj37l6Gn07N2vqkZ5mrzMfZw/H90stWRoW6KpoYoHKVtSeI+zJ8dCPW/0/hhz23hlt+zQi47eF3vu3qSwhmiCKzjQgWeKY4EA3+CAp0dJeoU3Fzh6kCzU3lpJOYPswMUKFY8LqXnnU47eOQv1/OYaqXCyJtvXmV9bdFrxBk0olMKbHUGRyhl6cWdE2eOmxQNaSZ6nznju9QxF1KZ+CT4ir+/8m1olKfyh6OcCAAAAnHvOqKDL+aMuVW/V6vh7ZonTJGUPy5QOvG8EZrbps+OS+vyTuiw7R+WR036o61BLjaoSDEGRJM0driH6VB+9ZsyIU3NcJ3Whvul6WKzXHnNYUoCKbhii3p3c5idHPzUXJaFIYwqlkx+/Y0yxXa9/tEi9+zmGOOlLDfqmpH983X/YiCRVHlSzpPypdbor4UxOKzSyUGr+eJtxLdSoqUXKTvS03uNE1GRcQnvuLtDSaOBi7pXKV0Q1rxnBlJqjalZIOUPUTlt0jpVMuEZ7jeun8fBRSf2UGw0oJnWeOqnq6zoqqd/FX5ollteWa2ZpKUOLAAAAgHPUGRV0SU6hvpEtaXBpbKiQaxhRgIqWPaiqqkcdf868Id2jaEAfSRfqmoXO/XpUVe3lQOkiQ/tdKLUc1ydmgUeRVrva9VE9MO5Cs1LHivsrV1LvcXOM8+TMP5OKhXq+aLl2tVgP9NYwn+pYrw4p3ssie9yi+DCgqjotqXLkRjkL5A7oJymksQudx1inJQvHK5ZWKc0u7uczxKqqzp1TRkruPAEAAABAAM7CoEutPmuWdCCez8X1d7rJchOwkuFeaOQ5eVVG54AuV3X4uD0EyZ1/JfrnSbjbhT45+qmU1UdDzQIXO+mtkaflkZ2d6Oli9zw66cjn4vozkvcmZ6223urMTRLS2IWOB3q7l0WzM4dJFw4J6ipW75KII5+L+8+Z+DZdGo76DLGK/ZlJiDs4TwAAAAAQgDMq6PL5sUZJufqGnQxXiud5ieuGYUQaoqJLL5Ra9uiFlB8u7ff6SC4o0QHfYUSnyQ5enG6uFysg5Mw/42PucA2RVFNpJBBOoP028xtGlMjXdPAfkr75P5ptFiVSOUNP2Q/01nAadfsworLHylVeXq71C683i9LLNYwoEf+2GHNbcr1hrOFEcZ5hRMnyPU+WlNdZ9D/qJ+loQ4Jkyzcs0vrycpU/RhpdAAAA4Fx0RgVd9N77OqJ4MlxplvJ/cJXU3OqqFtn2rk5mX6XLZ6SQpPS01Oi/myRlDVFR9GHNniXH/UxnP/RferWsyU7MqZXdokEJM8FrSuyks0OmpjiLUrvs4xh3U8qJbF2eeVVvt/js29x58dmLao7rpKQhY+LTw9yzJvHwovbbrEYPVNZLhTfpFd9yt3+vzm53ZhrNrTRmyYkGBpz5T9Zqa2WNVDjNUzd412tgH+v/Mq+6OdjZcypn6I1aKX9qe71H1mrPxxFXYt3cZdWakhPxzF7UcDQiZY3UGEc957TQkqRnNmlXS0hjF3YwC1RS58lmB4/G3pbcTFCzr29TSBk6aq7HxuxFAAAAwLntvLy8vK+cCwoKCtTQ0KBTp045F/cclzysET+4ys5H0qrwb6aqedRmXT7sY73vGjo0S/lLStXf8VZJOlIxWWEjEW9oxlYN7/Ou8f5UmQGUer1YtE9j7OmJb47NlmMPl7Ffndy5WjcfvklVU6UXi1bp2ejbo7XtYUsxLXv0iD1L0j1rHtVtOfHXkh3sWThGjcaMQJ71yL0uq/y4sQ/Wvrr3313mDF3EZiGy98E3Z4xjm1H3rHlUtxU6FtS+6h7qM3eeqqbGe6ec3Llav9J0n/21eI7V3Kbv/rlngbJ8rr++2qh+bw3UZQ/592TwBgNqtMVviuHiDZrvyW8S0a4V9jAY33Jbyw49Z8y0Y233qP+2nL7/C5VPKZBUpz+V/rRTM+hY21J8X9vhbQ/v/o9ZU6cp0fNdu0lLXxyk+QvHq3mzexiSq17LDj1360EVV02T2qsXVbvJNXTLu18JzpPsqbldeWES1f1SGzcd0vh/5Cr/3xL0q7thkdb/6Aplhv9EMl0AAADgHHTmBV2ALjT7oWNadK2049G+mp7M+KYep0y/KP+uCiLv6ZffX67XzeKewA44mUGXHm9Oi8K3fHEGXxsAAAAAgnZmDS8CuthzD4VUozaNv7s1+dwuPUjZY99VgVr13u96aMDljPW5/npLs3QgRMAFAAAAQEIEXYB2na9vP5qjSFaTFv2684PPutz3f6Hy8nJ9N79OfyqdqeWvmRXQeV9q46ZGDWnJ0fJEw4oAAAAAgKALkISqTF32crY0+JR+bpb1VL/9qUpLS1XayTwuaMeckxqfla1N0zL1nFkGAAAAAA7kdAEAAAAAAAgAPV0AAAAAAAACQNAFAAAAAAAgAGdM0KWgoEAXXHCBuRgAAAAAAKBHOmOCLgAAAAAAAGcSgi4AAAAAAAABIOgCAAAAAAAQAIIuAAAAAAAAASDoAgAAAAAAEACCLgAAAAAAAAEg6AIAAAAAABAAgi4AAAAAAAABIOgCAAAAAAAQAIIuAAAAAAAAASDoAgAAAAAAEACCLgAAAAAAAAEg6AIAAAAAABAAgi4AAAAAAAABIOgCAAAAAAAQAIIuAAAAAAAAASDoAgAAAAAAEACCLgAAAAAAAAEg6AIAAAAAABAAgi4AAAAAAAABIOgCAAAAAAAQAIIuAAAAAAAAASDoAgAAAAAAEACCLgAAAAAAAAEg6AIAAAAAABAAgi4AAAAAAAABIOgCAAAAAAAQAIIuaRPS4ll36uX7S7Q4V9KoCXr5/jv18qwRmuisFl1eOsjxnjv12ChnJWnipBK9fP+d+v2kkKRBeux+x7oBAAAAAECPR9AlKMdOqFWSTkS03SyLiejQCeu/J46ZZU4tOhGx/nuo0SwDAAAAAAA9EUGXtIkGUDoIjNjBmNbjLWaJy/Ymq/xIU8QsAgAAAAAAZwCCLkFpjOhIEsGVA8cjHQdqogGdyAkdMIsAAAAAAECPdF5eXt5XzgUFBQVqaGjQqVOnnIu7XU/dLwAAAAAAAD/0dAEAAAAAAAgAQRcAAAAAAIAAEHQBAAAAAAAIAEEXAAAAAACAABB0AQAAAAAACABBFwAAAAAAgAAQdAEAAAAAAAgAQRcAAAAAAIAAEHQBAAAAAAAIAEEXAAAAAACAABB0AQAAAAAACABBFwAAAAAAgAAQdAEAAAAAAAgAQRcAAAAAAIAAEHQBAAAAAAAIAEGXNCgoKNAFF1xgLgYAAAAAAOcwgi4AAAAAAAABIOgCAAAAAAAQAIIuAAAAAAAAASDogvTLHaHf33+nHhtlFvQgoybo5fvv1MuzRmiiWXauOBPO0znie6V36uX779TvJ4XMIsBy2p/XkBbPsq6zzq+j55o4qUQv3z9B3zMLepAe+zm3r62e1H7Rtor+deU122PPEwDgjEXQBak77S//wfleaQ8NpHRDm50JDyFAcAbpMR6czho9937Wc6+znttmHftd+R90y+N/0C0bP1CrWQgAwBmGoMs5I/4r58ulg8zCc8+Hb1hf6NZ+pO1mGdDFog8Y/7otYhYBaRLRsrXWdfaTD80ydIUe+zlv/Ej/+vgfdMvjb+h3Ztk5qMeeJwDAGYugy7kid5D+ORTR7j0Hpby8M/KXLwAAAAAAziTn5eXlfeVcUFBQoIaGBp06dcq5uNv11P1SD9+3qImTSnRfYVhPrI3o5vsnSJXuXzsnTirRfWNa9Irrl65Beuz+Ceq/p0L/ui2i75XeqZvz4u8xHYiuM3eEfj/9Mh2p/IM+HOZ4T+QDPeHpWRLS4lklujLWMzui3RsrtKwx+traB1X+Qa/klOi+MdGKB+P7am8vM/oWk3O7oybo5WJHT5/6N3RL+UFHZaeO9s1v2+46SbeZzToP8W7qrXbbJ89qr8Hm4hhvuyV3nsz1OtaTgmSusxhP2/pvs8M2GzVBLxdnaffGCh26znk+/NfXLkebOc/b90rv1M0XGe2WxP6b14d5Pcjnsxs9B57j9FlfTLvXeQLmZ8Vn/1Nirs/Yp/ba0Le9HcfpbAvzejCZ7eap79ov6x7wz7UV+mufEt2cZ7+/6TL7WHzuCUkw999sC4v5mbPErpFRE/RysfTKxhP69vTLlKmDeuXxDzQwes+KrTOJ+1iK11lyzO1619XxOfdvg7j4NRm/t9RrVIf7b67XuLZzR+j30/P1X+Y9w3Fv9Fw3Bud2zfPt9zmP62Df5PNZctUx32/y/hsQu0f53vttZl1zv5Jos05JcA9wMtvX95x72iwqfhzmeto9T+b6fD/DAABYCLqkQU/eN0v8wSEWPJH7C0JnHoYTfglyfjmLfRHxW5f95dDxZcXaDzkeChxfIM2HCHm/zPl+ifdlr+NEgi9K0WNwfWEMaXHpIG0vj74epMdmhfSKY1vWlzafh5qO2iz2Xu8XYpntnyT/c+qQ7Hny2Q/PvibJf5+S26ZyR+j310X0r+aDekdt5vxynMQ11K4E59Fz3fnth8/+xyRYr1wPd47ryj4m50OBpy3sOr4PIB3x7Gv0ATr1cy7Hw4zrIWbUBD2mN9z7b352fdrFc5ySvldaooFvmoEEn+vKxe+Y7PtN7HNv3zsVkWpf1xpdr/sKpdZQi/5qP9wnXr+/iZNKdHNTRbwdop9D50NbouvH2RZ2MLE10qK/rrX3JeLYT8/nzB2A9A26JHGdJctzTnyux2TPuRLeO8xyKwjiDkwZx+vTtp5rynFvjO+v998rS0fXmUOCY4uJ3qtc2xikx0qlnzivjSQ/mx21mZPvubBF29Z7v3FcKym1WQrabTPz85rg8+S5jn3e59TuNpO7nwEA4MTwonOBPbTov/ZZXwh/t7+Lhhi5vmgd1If1UmbhoFiS24mTLtNgHdQrji9j27e9rt2RkK68zvhFKvKBnojVi2h7bUQKXdTOr3mn53vXmQEXWTkRYgEXSTqonxhf2H735gdqVUj/PDzxL6C+ckfo23nSgUrHl+PGj7RmT0SZYy4L9lx1cJ6ibbHG8UDxu/I3dECD9O2gkkf2vUiZil+zkp13wPnFPcU2a91T4TjOgK+hZPY/RQcqHQ+OH9brgKT+OdH2H6RReVLrng/ibfHhB9odcZ/LpHn2NaJlbx+0tpNqMujYeTIeYD7szANKSAMvklRf73qI/F25N4jQoVGX6cpQRLs3Oh9ID+onlQel0GW62XGcmaEW/TV6/YdCOuK45jL7ZMUrJmH7NkfARVZb/7Vernuy32fOX0iqjZ/zTIUd78nSwFxH1SS1f50lz3NOTud6TIHrOvuwXgeM+7Ff2ya8n9W/4QikWPdGXRQKaP9DWnyNGXCRdU06X6fzs5mUQbp5TEite9zXrdVmPv9Wd2Gbxb5DOP8dtv8NUN5lWmxf/98bNkiKfKBXYvt/UK/siUihfE1M9TOS1vsZAOBcQdDlHDBxeL4yI2Ftj34BPnZCrYF9QYs7sL+9B8yQJhaGPA9PUkSHTni/pLXWHvT+GhUY+wG2M9tsjOiIuSwJE4fnK1MH9aHxpW17U0unH56S1f55StQWLToRSf2BM2nHTqhVIV05vST2xdmUapsdaXI/wG7fVhFc4sgk9j813uN0yQ2pv7ks6kQk9evYz7ETnZpFJNF56hz7/pA34bQTgn9v2CBJLTpkBmv8Ag2u+1REJ47Fi9LhwHHntZnoM+fHCOyd9rlO13nyY5+7QHW0/4na1v9+1v69Mc1yB+mfQ53cZic/m0kZlafBPvfPRAGVTu1/p9jfISIndMAo2b4vrFaFdFFfq97Ai4wKMT6f/w6k934GADhXEHQ569lfTJxfxhsP6r8i0uBrunNq5SxdFLIfnu63Z1Wy/3xzUnQl+wHW+yXTa+KkEmP/2xtLn9jgPiHrF0WjLfzHoHchuy0yx5jH6c7VkHaNH+lfH7d/SZ0eb1tn75Ue22ZKbv/Tyu4t4erhM+oyXdnZhzi7C72rXdvLm9SOwX38H4w663flf9ATeyKue0enp+ttZ7/MB/D0GaTHjGu2vdwgZ6zcEfq9cZw95d7e5fezZNi945IJ6KXrs5m8dvYrqN6CyWon0GgFTu2eQK7ea1bvHe+PPh1L9/0MAHBuIOhytrN/PXMHN+wvmJ3pWps21i+Lqrenbjb//MZZdxW7t0pHXeqd49zj+/5Gp76MWb90H9QrZjs8/gfd8ngnhk6ki90WrXsqfPbrD50fp5+Ug/pJdDuVVvf5mx2Bix7bZjHt7396RX/NdQShOpmLQ658DY423fhBp35NP3A8/cO4rF5K1nneHbEeojsdeEmg9XiLuSgNHLkkHNfrE3s6DvCeUZx5NRzH+Uq9WbGLdev9rAN27zird0Zi6fxspkUPDkBEfziZmGMFUAcXR78DdT7PTBD3MwDA2Y+gy1ku2hXW82C6MYncI3a3Yo8kgxLt8x9GdLrS84XI7mrebu6BaNdm5zjxdnTQZomGxJyO9KzTv9t9WiW6zpw+fMMOXMSPJz3Hlw7WkIV2+ex/WsXyk7g/550JuMSOp/6DtASurPPUueGM1v2rPREtW2sHXjzXaPvX7u/2H/QPPI/K02Bz2E662Nf6gbfbCyr77/f3rgu6N0P6WOctot1vpv5Qm+icp+fz7t+2pydN67T/jRg8rL2eeql9NtPSZj55cSyJhmp1FTsvl09+OvcQoHhOmnQE2FK+n42yf/Ca1Z09iwEA3Y2gy1ktUd6U+BCjaGDB80XCnA7Rxf6S6ZOsNBW/e/MDtYYu032nmZvBKXocnoSIKYl3R3bvW0iLS6NfnOygkfOhLXeEfp9weFEHbfbhB1YC4elp7AkRzStiJjpMid0WeRPS0pMg2ets4qQSPWZ8qfXk4AiizTrieTDyn541qf1PpyR/JU+O3QvN+TAzakLnhzDYCVQHFxv5bUZNcLWRFTCNf578p+QdpMfMhxe7N5+3Z0o0/0s8oaZL9PqZ4lzfID1WPCjph9qU2bk3nA/W3ys1hxdFHybj+z1xUoluvijSfb0ZUmR9zp0P6iEtnuUdXpTcObf1wPuZpYPrLGl2clfPvg3SY7F/h1L8bKalzaz9yhxzvev4vlc6QYN1MJ5guhts3/aBDmiQbnb+O507QnePCTmSiqcpKBaV5P0syrrvd3fPYgBAd2PK6DTosfvWwbSH1hfc+PTM7i+8B/XK4x9ooGOqaTfvw2ZsKEOC7fpPSeldj5zrSjAdZ3tTYXq+uDtmIYpO9ejHMxTDMQWmxZwKOjpVZ/T1Qb3S7jSy3mM1t+m7f53sBi35BTW806ImdZ48bSGf9khOsteZpy08s0lZPPVktJlnutDTZLTFgco/6JWcEt1XGHbtn2e/PPvvvR7i4ufJ/1r3fi48132UZ7vJMPYt8oGe2CLd7XO9JMvTHj7XtatO5AM9sTaim++fIDm36XMtJj635mfUOZ1tCuX21PLue2Ynp8M1PpOteyp8p3h2tUX9G7qlXHrM2Rau6ZDd++LaT3nbK8ZxbSR7nSXLvB4PVP5BHw7z3luSOudR7dzPUtp/n2vIdT9L5d4odXAdJfc5j2nnGC0pfjbbWZ95jpzMqeY9dc37Sspt1p5U2sxb13M/8D3fMv4N864nztxmcvczydH+ZnsBAM4pBF3SoCfvG4CzX/SBKOHDRqIHAgA4myW8B0YDZd6ACgAA6cbwIgA4w1kzOflMY9rJKcwB4KzQ9yJlym8Wt66YwhwAAAtBFwA4w1kzOXmTO1p5F/weOADgHOCTR0myhv3cnCf/nHcAAKQZw4vSoCfvG4BzgyfnguSbiwAAzikJcrp4hmMCABAQgi5p0JP3DQAAAAAAdA+GFwEAAAAAAASAoEsa1NXV0csFAAAAAAC4EHQBAAAAAAAIAEEXAAAAAACAABB0AQAAAAAACABBl7QJafGsO/Xy/SVanCtp1AS9fP+dennWCE10VosuLx3keM+demyUs5I1/evL99+p308KSRqkx+53rBsAAAAAAPR4BF2CcuyEWiXpRETbzbKYiA6dsP574phZ5tSiExHrv4cazTIAAAAAANATEXRJm2gApYPAiB2MaT3eYpa4bG+yyo80RcwiAAAAAABwBiDoEpTGiI4kEVw5cDzScaAmGtCJnNABswgAAAAAAPRI5+Xl5X3lXFBQUKCGhgadOnXKubjb9dT9AgAAAAAA8ENPFwAAAAAAgAAQdAEAAAAAAAgAQRcAAAAAAIAAEHQBAAAAAAAIAEEXAAAAAACAABB0AQAAAAAACABBFwAAAAAAgAAQdAEAAAAAAAgAQRcAAAAAAIAAEHQBAAAAAAAIAEEXAAAAAACAABB0AQAAAAAACABBFwAAAAAAgAAQdAEAAAAAAAgAQRcAAAAAAIAAEHQBAAAAAAAIAEEXAAAAAACAABB0AQAAAAAACABBFwAAAAAAgAAQdEH6FW/Q/Ko63TXXLOhB5lZqSVWdlry0QblmGZDIxJka+sKTGlBmFvQgZfdp9AtPavTamepllnWrYcpZ+6RGd0v7famNm+r1wUNfJrkcAAAASA+CLkhdDw6qjFnTQwMpPbjNENdrwVKNfuE+9TYLut2NGvDCkxq6YJhZ0O16bpvF/fzXhzQ+K1tbH/qaUfI1Tf+PbIWuPaS/zjGKAAAAgDQ4Ly8v7yvngoKCAjU0NOjUqVPOxd2up+5XTPEGzV84Xtnm8tpNWnr3wli5di7XU4vXmrWUu6xas8cd1Zai3RpZNU35ZgWH5gTr6DL2sTRvLtDzz5iFSZQHaMyaOk3J2aHnbp2hRrOwO3Vjm3SV3iufVKHnwo3o8KolatoeLQ+r9vYndNKsphs14IUSZex6WvW6S8PHhswKDuY6rPfmSGrb9bQ+WbnfVTsVvRYs1fCxxxPso93TZd6Vaqu4V4fXmYVBirfP6RxfEDpss242+6FjWnSttOPRvppeZZZakqkDAAAAdAY9XdKlcoaeKirQ0tjfcu1qcZYfVLPjpa+Wo2rQQj3vWM9zOyOSarTFsaxbAy5AAicX3Kvq2x1/FWFX+RdNEddrP21H9uuLlUsc66lQkx1MiS8zHu7LRihHYR3eFVHGsGt72JAadK/PNe3aNkXe6tNuMOW5h/poR0ubxt/dqtlmIQAAAHAa6OkSmFma/NIijW2ye7pohe6qmqbsBL1UcpdVa/alez09NOI9YIq1x7E8VWPW1GlKoWNBtAeOzX877n32rMMQjvbicPTq2DvG8Z4Wvx4odjtlRV9HtGvFaG2tjL629kGbC1Q5oFqzx0V7QNTE9zVRL6Mo53bnVmrJ1CHxMqMd3DraN79tu+sk3WY2s76nV9PcSi2Z2k+7VoxW423Ouo726CnK7tPokj6xni7t94iwenLI04Ok4x4evVc+qUJVqHpLrobOG6oT9vai/LfrXG9+rKeMP0fPGkdPl5YRjp49kd3aN2u9vnC9L94Dx+LfQ0cV9+pY/6WO3j3xeta+J+714+rZU3afRpc4uhqFK1S94C/x1y4d7Vv8WDNiC+K9lrzvNznXN0w5a3+oAbHDcK7H4NmmuV8dt5mT1YOllzbdlKV/N8o85rQofEuzal7O07dXm4UAAABA59DTpcvUqKlFyu7neODvIrnLqjVyj6MXzoodai6cpiVrVphV27Xnbsf77YBBvGePd9hM/tQ6TdEmu3yTwlnjdduyWY4aK3RXlR2YivXskcYurNbkYkc1e12z+2119CIaoinR3C2OXkZbau0gi7PXkTPQ80yxYx2uTbgVb9D8qkUaK+e6npJuc+aLWaG75kovOra1pTbk2v/k22yF7qqyh0ZFy1fskMYt8jlPIY1d6Gxboz16qC+OHJfURxdMNEtOx43KypeaPvqLtP0tnYiEdNG1qeY9+YsO271o9u2K2A/wzl473of5nBI70BPtjRO6UnnOfCsTZ2qoHdSJrqc2nK9Cn9wnOSVPanjO63a9p3U4kq9COwluvNePX4+fe92BqHVPONbh3IKh7D6NfqFEOeHo/t+r6ts/UtbKGx2VbtSAmVK9Y1u14ZAGzFuqnIlKsc32q2mWvdzo/eTUa8FSjbYDWu42i24zrr02i/tSk4a3SQcu6DjgIkmrL1CNpCGjPzdLAAAAgE4j6NJdijdoflX84fzifiGp6WAgeUgaF492B0QqZ+iNWkmFV2qMY3HauXqRLNTeWin70kmxwEDussnKV422OHqaNC5+SrtaQhp7mxFoaNmh52L11mrPxxEpq58udtdKmzG3jVe2p2fOWm292/l6oZ43eu7seXGHmhXSkBucwaWOxdrCub7KGXpxZ0QqnOwJQjXvXO5o2861x788+IIqKioS/L2gh/6X+Y706r3ySY2OPuhPzFWGIvq8zqzVAXtoUcs6SdqvyP4uGmLk6kXyF7WE5dpu7ylXKiOyW/WOoMjJBRVqUr4uNpPhRnZrX2xd1jEo9M2AjmGYcq7P9+kF8xcdNl8bPXdObtmtNnUmqJWMG9V3bEhtu5529XSy2iykAVOcAaEk26zolEZmSTXV5zuXtuN87T4g6Zv/wxAjAAAApA1Bly6zVo1N8Ve5N4xUdiceztOl4Wh7P4WnR3hPomE7kjRLYy4NSbW7jSExdjvlDHL12mj+eFsgASl/KzSysJPbTCZ3j4fdFi1H1WCUNL62V80KKcfoINV82D1ErXHxaC1NcXjRfz58u0pKShL83a6H/sN8x2mq+4faYi+sHirKH+Hp+ZGK3iPypfBHsV4VXxw5LoWGKpTW3jReTR8lGraj2LG17X/LGG4U1ucRKSPHnW3YWy9AE6/VRaGO9j+B7Y2O85dmZSOsRMhHzCFkVkBLfXJdAZWk2mzI/yikDB2tMQsSqzmaIWX9j7q+PyIAAADOVgRdulrOIOVqlsZcKu3aWePq+dGcytNBSqyhK0scf/HcKN1liHKyJBVOc+3Xkqr2c6B0ieJByvYJbPjJXVZt7H/7M0+1q52eTtkDuic4l34hnV9gP2SHd+twJF9ZZdGy4zrll+cjITu40eQYsrLuI/+eEV1pYq4yJGWM/aFGv/Ck48+Z16SbFHwz6R5F1lTQzv1vL4dLOrSzX2YvFgAAAOAMQdClC8V6lxRP0hDt1Z7FuxXOGqkxxbOUG9jTjJWINt/Ic2LNitSdrBw3qo3nc3H9eRLudiG7t0pHgQ4r+XDIyNOySYmzVnReMgGgVHX58CJHT4neI/LV9NF6RfZHlDPiRjsYkCK7d4Q7uGEHBk6zB81psY/TzL8S+0uY3LYL1P1DbdHAVzuiCXybHPlVonllukXkHx33bAEAAAB6IIIugbF6cnh6r2T105gbRkofb1OjFmpvbUhDbgiwM/vcK5UvKVzZiSCG/V6PJIMS7fMfRnS6Go6mntvEy0567OiF5BUdErRDlUYCYV/ttpmdk8Unx441DK1Ge5PZRoqCHl7Uq38f394rGf1nKivfysPyxVufqK2TAZLeI/Kt3B5mUKMiLMnZg8aHHbAxpSfZr/8wotOTpnXaAaGcEe31BBqm0LCQFNmtY66ZpPylpc3sHkrefDGJhmoloebriqhNqeQuH9KvTWr5uoLqcwgAAIBzD0GXdJlbqbvmxl9aiVEjqnnN7KHQT0MuVWz5nj01yh43WUMC6s2gmqNqlpQ/Jp6Ydswa7/CixsNHJQ3RyOgxmFMru9hBiXHTPEGCVOx5cYeas8Zrtmd2ns6LHscE1yxJqVqrrZU1kmffZmnymugMQXbQKGukxkST3BZv0PyEw4vab7PGxVsV1hBNcW6veINuGxdS885NKeVq6R7DlLPSOXuMlRjVmW8lZthQ5USXb39LJyL5uvj6Pin2ZmjnYXzdR2pyBBasoIAjCGNOrexk9wQ5veFJ+9X0eljKL9FQM2lup+3XqeOS8q/3zOSTmr/o2K6Iz77dqAGx2YvsbTlz49izMfkFqtLTZtZ+ZYy9y3V8vVeWKEdhNSSYLrxdVRdob0sqsxF9risHS/rH1/WcWQQAAAB0EkGXdHmmWHvHOHOmSLtWjNbWyngVKyAQUnbWUTVGlz+zW2GFlJ0Vr5dWlTP01OYaV+6UCUeXe4cXPVOs53ZGlD/VPoap0paE0yqv1dZbN1lBAkc+E2fQKSmVM/RU0SaFffK6pLyuKPs4ssctiq/PMZXymDXRbSzSWCOnjGubzxTHp9aO7dd86cV4j6E9dy+3ZlpaaJcv7Kc3Eg4v6qjNFup5sy0Wjlfz5gI9tTiAYFza7VfTFinPOczHM0OO3VsjFHLkYbFnHAqlmOykbIRyFNGJt/wexu3kq9EeNOue0L5dEeWU2PtWItUmmlZ5+3p9UmEFTOJDlrzTPHdo3ROqXrVb8uR18U5/nKyTC57W4UhIA+bF1+cMnPReGV1u545xHMMAR6+fL1YuUXVF2BiWNUItjnPl2da8b6oh0fCijtps4kwNjS4vyZfkWK9jmucvVi7Rvl1yHV9hn93a5zNld3K+pm37MqTBp/Rzs8jPnFMaogztKE92tiMAAACgY+fl5eV95VxQUFCghoYGnTp1yrm42/XU/QIA9FSf66+vNmrIgVzl/1t7wZQvtXHTIY3/R0f1AAAAgNTQ0wUAcJY6X5veypAGN+qvc8yyuNkPHdf4LHq5AAAAIP0IugAAzlrPPdRXmw5IQ245po1FZqmkOS1adG2bal7uq+lVZiEAAABwehhedCYq3qD5C8cr21xuqt2kpXcvNJcCwDnGGj40ct9AXfbQ15JYDgAAAKQHQRcAAAAAAIAAMLwIAAAAAAAgAARdAAAAAAAAAkDQBQAAAAAAIAAEXQAAAAAAAAJA0AUAAAAAACAABF0AAAAAAAACQNAFAAAAAAAgAARdAAAAAAAAAkDQBQAAAAAAIAAEXQAAAAAAAAJA0AUAAAAAACAABF0AAAAAAAACQNAFAAAAAAAgAARdAAAAAAAAAkDQBQAAAAAAIAAEXQAAAAAAAAJA0AUAAAAAACAABF0AAAAAAAACQNAFAAAAAAAgAARdAAAAAAAAAkDQBQAAAAAAIAAEXQAAAAAAAAJA0AUAAAAAACAABF0AAAAAAAACQNAFAAAAAAAgAARdAAAAAAAAAkDQBQAAAAAAIAAEXQAAAAAAAAJA0AUAAAAAACAABF0AAAAAAAACQNAFAAAAAAAgAARd0uoOPTJnndZeN84sAAAAAAAA5xiCLgAAAAAAAAEg6AIAAAAAABCA8/Ly8r5yLigoKFBDQ4NOnTrlXNzteup+SdL4657RvJEZ5uKYtr3PatabOyWN04Lp9+jylq2a/s4lWnvraEXfFa9zhx6ZM1n5n1Zr1cbHtcO5ouEPa+PEPIW3l+mBfY7lNyzS+h9doczwn1T6k3WOAgAAAAAA0F3o6ZIGO96cq+mryzR99VaF7QCK9dr6s4IpDgMna+OtQ7X/JbvO9npljLxHjwyXpD9qy9426cKhmtDX/bYZg/Mk1esjZ8BF0vXjvqVMScofpTJ3EQAAAAAA6CYEXbpFvSpWz9XKY/bLfR8rLKlfHysB7479n6hNGRo2zJmQ9w6NGCi17d2qDY6lkvT6zr+pVZLCH4p+LgAAAAAA9AwEXbrDp82qcy34ox5w9og5tlP7P5Uy8sZpfLTK8EuVrzbt32/0mpGk15ZrZmkpQ4sAAAAAAOhBCLr0SDu1ck+9a4jRjMF50qHX4r1jAAAAAABAj0bQpafa97HCsSFG1tCi8IE/mrUAAAAAAEAPRdAlrerV/KmUkZ1nFnSClVA3I2+cxg+/VPk+CXRjblik9eXlKn+MNLoAAAAAAPQUBF3SaqcOt0gaeIMWGDMPdcaO/Z+o7cLRmjcxzzeBbhSzFwEAAAAA0PMQdEmzDRXP6v1PM3T5reu0cY71t/Y65yxEKbAT6ipRAl0bsxcBAAAAANDznJeXl/eVc0FBQYEaGhp06tQp5+Ju11P3K1jjtGD6Pbpc1Vq18XHtMIsBAAAAAECPRU+XnqzvOA27UArvIeACAAAAAMCZhqBLj3WHHrl1tDIObdUDiRLoAgAAAACAHougS0/T936tnbNOG+dMVv6hrZpewTTRAAAAAACcicjpAgAAAAAAEAB6ugAAAAAAAASAoEsaFBQU6IILLjAXAwAAAACAcxhBFwAAAAAAgAAQdAEAAAAAAAgAQRcAAAAAAIAAEHQB0OOMWVOnJS9tUK5Z0GPM0uSX6rSkqk53zTXLEJwira56VK8sG2IW9BzF0/VK1aOqqpqne8yyM8qX2ripXh889KVZAIef/7pe4V9/bi4GAACIIegCoIut0F1VdZq/bJZZ0O1yl1VrSVWlxpgF3a7ntlla2QGL1T0wkHXPmkdV9dJ0FZkF3S2gNvv5rw9pfFa2tj70NbPonJFM8Pffy3MUGdxIcAoAACRE0AXoEeI9J9x/8QDAmDXu127Rh/LnEqzH8bdmhflmpGyttt5aoKVFBXr+GbMM57TKjbq56GcqKlqlZ82yM8Tsh45p2uAM7Xg0S/9uFsKtKlOXvZyt0LWH9Nc5ZiEAAABBF6CHiD/ER/+e2xlx1Wg46n7tp/nwbPd6NtdIimjXCseyuxeabwMA2+eadm2bIm/10fQqswy+Vmdp0wFpyC0t+rlZBgAAznnn5eXlfeVcUFBQoIaGBp06dcq5uNv11P1SD983qwfFIo1t2qSlLw7S/IXjlW2XNO9crqcWr/XWzYq+jmjXitHaWumoIknFG1zrkWq0pahYe1zlI1WzYrQab6vTlEJ7ecsOPXfrDDXG3ie7h8Y05cdem9u0yrW5QJUDqjV7XMhebmzTNmaNY3u+xyifbfqvq7vlLqvW7HFHY/tmvnaLt5Or58XcSi2Z2s//PKZibqWWTHXm0TDbzNp+ttHezn1uWOY8f17OczVmTZ2m5OzQc89ItzmutbB5fLFtxNdrnvPcZdWafelePXfrQRU7znu8nnk9mJzHmuRnxNbRvsnnmlXtplhgzHy/ybO+jj6bzvN0eJrrnPq1bTLuWfOobnPt/6squtvxtF48Xa8sHKPGzT/THMf671nzqG7L2aNHbt2ooeY6DDWx9xZpddVNyt25Wr/SdD0w7kK7Rr1e9PQsGaJHXpqja2Ln6lO9veJhPeA4V/eseVS36VUVvdhfrywco9728tj27H2PLvdosfa/Sj51nWUeHe+bt450cudq3by4RvJrd0O8zSxFyx50tJd7XU6zHzqmRdf20qab/Hu5xD/Tm5Tr/Cz43N/N69dzvcrvmpXxuer43hK/vpP8fHq26ficeMoMPscpSSpq1Qc/a5LeGqjLzuEhWQAAwIueLueKwmlasnCkaqI9HjbXKHvcIkcS0BW6q8oOzsR6WkhjF1ZrcrFjPfYXUu1cHu85seKoJniGrIQ0dmGdpii6vk0KZ43XbGe9uZVaYn+Zdm/Tm5w0f2qdZvfbatdbrl0tQzTFGGtvPbzWaIujt8gb/eZ799/Y5pbaIZqScNhOz9F4+Kikfsp1Hk9XKN6g+WN2x893tP1TbLPGxaPj14L9ABZfZ4H3YSxrvGY7rtnndkaUP9W9zTFr6uwHr+i1uEMat8ib+yRrvGZXTVaT7/W/UM/Hrr+I/QAW36+lroc6R4+kzd4H1jhruNjscXL1MnpR01zXY+6yao3c49jWih1qLpwWGwKWSpvlLqvWkoXj1bw5Xm5d28ZnWFL2uEVaMlWx47Ta1luvI0XLHtSYPT9TUZH9t2KPThbepKo1qWU+efZux/vtgEFsnUXu4IEk9R43Rw9cWqNHin6moqLVerslT7e5tlmk1VVzdE3Tq7F1PLJTumbhg3rEPMbCm1S1sI+2xup9qiFT7XqxoUI/04u1diDFsV9FzqCKWTeR4ul6pWqOrpFzXRul29z5Yu5ZM116xrGtzfXqPW5OLIlwKm12z5pH9cC443oxWr5ij+RYV9yXmjS8TTpwgW/AJW6IplQt0pCPo9ej9/6e1GdzbqXnmm3/c9WeNP0bVjlDT8U+P3aQxfGZW+oXcJGkqgu0t0UKDT+l2WYZAAA4pxF0OWfUaEuR4xe/Z3YrLCl7gPUFOHfZZOWrRlscQ08aFz+lXS0hjb3NESgZ0k/ZiqjmNccDcuUMPeU3ZMXxi720UJU7I1LhlfZD8yxNLh4i1W5yPTha25Tyi43khS079FxsXWu15+OIlNVPF8cqzFJujqTa3a5eIHvudv/KOea28cpu2aEXHdvcc/cmhTVEE8wH9Xb9ix7aWKGKigR/Gx/Sv5hvSbMxaxz5WYoHKVsRNXX2eaU9nvO7VlsrayQN0cg0J+90c/9K3fjaXjU7t1m8QRMKpfBmR1CkcoZe3BlR9rhpnoBQeHPi6z/t5k7T2Czvr+yNi4uN16PdvUsqZ+iNWjk+J8laoeJxITXvXO5an3VtG59hRR8k4+1mtW1IOeYzeAeqFj/sDohUbtTWWkmFw4OducfVi6RGVR9/6tpm0bLrNET1etHR46Zq8Ua93XKhrrnNDAh9qrdXxHvJVL1Wo5O6UN9MsS2Sdc9tY9Tb0wumRg/c7e4V8+zdRs+XZ17V2y1S70uvTi2Zb/F0TS6UajY7egJVbtSvdn6q3uNucp+nolMamSXVVJ/vXOorvNkZ9FuovbWScgZZ9+2kPpvxfwM608PKFMi/YSn5mrbty5Cy/kcBXToAAOAMRdDlXNFyVA2uBdav+9aX5lkac2nIE7CQ1qqxyfFFWpJqjqpZIe+vhz7Ce9xfYl09NYonaUiW1HzUjBL4BVSk5o+3+f+6GGPvq6OXgNcKjSz0W1eNmlqk7H6pfFX+Tz00vUQlJQn+pj+k/zTfcrpqjqo59sI6ltQfztPEtS8BadmrPeawAIfcG0YqWzXaazyw+fcI8tYL0pgxQzrc/0SSyd3jMfdK5UtqPmz0FjIfhqOaDro/A/av++l4+P3k6KfmorQ7+fE7CYbtSNIQFV16oVS7zxhuVKP/bpKU098dtGipUVUnzlPnFGlMYUf7n4i9/ykqumGIeqtee4xzW3X4uKQ++ifn52TI/yikDHluyx7eAO+eu+O9QJL6bNr/Bpj/TnROMP+Gpeq5hl6SvtCglKJiAADgbEfQBZKGKCfLDlgYM924ck0o+nBm/3q+0DvDTqq8D4lR5kNzx/bcbQ8PcRyHqyt78SBlR4dWuI7TmQOgp7N7I8y9Uvm1O7Srxdnb5KgaA3p4tGZOcvy1l/Ogi1zcL2QPczD2zZV7pjvYva7MwIYva9Yp5/63l8Olfd4H4RgjiJk+RVpd9aiqHH/OvCHdI0/fzLKHDRn71l4OlC5R3F+5khoPJzpRDvZU0Ke7/0P7XSgpT7cZ66qammdWTZuu/2x2379hAAAAHSHoglhPD9XGx8K7/jxj2OM5MKzx96nn9+hY5wII8RwYy7WrxQqwxAIvlQfV7JMXI/aXUvfybhheZO+/7J4U4T0ztOfjiPLHrLC7zAfDypVjzIC0YkfwPV06YPUIMfOvRP98kmd2GZ9f133ZCXyNnBHmrFVp4enplg5WUtshRp6TR3YG39OlffX6R4ud0NeZfyX6lzC5bReoPGL1BBnQQfAhmpTXOIZ2c8UkYPU8qo/nc3H9mcl706PrP5s98d8wAAAAC0EXpPCQ6OOZYvtLa8c9U1xDLiq3qaZFVsDAJVE38VSt1dZb7cBLbNhQZ4YRJRL88KKL+4V8H5azB2zQyEKr637ja3vVHOgQI3sYU+3WTjwo2efSIz3nwX8Y0elJ1zobjkakrJEa09567CFB4UrzgdBPB232zG6FFdKQG8wcNYmG1CXphkVaX16u8vJfqMwsmztcQyTVVHYmiGENs/FINijRrgTDiE7TJ0c/lbL6aKhZkBIrINRRXhZrSNCnevvFJFq2gzbzHUaUSM3XFVGbEl1myUrqc2QHkd15lew8Lx0y7y3B/BtmfY6T7yU2++IvJPXSwSROGwAAOHcQdIEkac+LO9Rszi7kI3dZtWdmoTFjhnTcM2VupaYUOh8w7WSshdNc68tdNt9KQPpiKr1OZPUaMGYz8uaNiW/TM7tNt1uhu5xtbyei9H1YvnSk8qNBqcptqmkZognF/XwDNKfP/gXZGdixZxxx96yxgwKXTrLPgTl1q1M0/87k08up8MwmK0nmwjT+Qh3N92Amnk1R4+Kt9vAF977lLquMH7OdF8cZeLRmfPELVHXUZlai6uxx7tm6xqyZpnzV6A1zZqgkXT/uW8qUJBVo1PeNwprjOilpyJh4+MCaJccYXmQHBeL17B4y7lo2OyhhJnhN0bMv7tHJrDF6IMVZlNpjBS/yNNkz408qavRAZb3k2bchemRNfPYia1sXasQN0W0N0SMvJRpe1EGbPfOqlUB44Tz/cid7Bp4hoz83S1KT1GfTyjfkTHo9Zs0ijVXE6EWX3L0liH/DrOBRsknW7ZmfWr6uJAaPAQCAc8h5eXl5XzkXFBQUqKGhQadOnXIu7nY9db/Uw/ct9gVVO/Scp4u1yR7uYCwNb3Yn2LSGmzgqtBjrtqfkdD+Ue2dykewHeNc4/xptcU3Ra+1T9s7lnulxrelIHXV9tmvuu+RfL+H+dSWjLZqNY3Y+bDjLrLYIec+Douvsd5rHZlwXLTv03DPSbfZUr/H2dddr3rlcTx2eZk9N7Dyn8n1wch7TmDV1mpLjf125t+lzPco9c5bvtZLgupK858F1TfpeOzZP+7d/jJJ3W807l+tFzffZXyW1vti1EOXZJ/scuWYWa8cNi7T+R1coU3X6U+lPtc4snzvPlRvk5M7V+pWm29MTO2bLiQ6XsV/WbP6ZXhjwoDXts2e4jzcoU7M5OgWyVZa7c7VuXhx/tC1a9qB3mz7rkWtdVpDothxjJiF7Xxsd9aKs7TiCSo5ZiDxlDieN/TXbw5pByT3Ux1xfzeafac8Yn/21anuO1Xmcih6r53PyqoocMzxJ0uyHjmnRtb206aYs32mjrWtMSd1TOvpsmtd0/J5h3rOSvbek6d8wh44/U7aiVn3wsyYdfTlP315tFgIAgHMZQZc06Mn71i0SPBwDAHq6z/XXVxs15ECu8v+t46mj0y4tgeKu9/Nf12vaN3O0fFqmnjMLAQDAOY3hRQAAwHa+Nr2VIQ1u1F/nmGXwNadF0wZLNf9BwAUAAHgRdAEAADHPPdRXmw5IQ245po3pS4tzdipq1Qe3NCvy1kCGFQEAAF8EXYBz0Jg1dVpS1dFfdYKkrQDOdv/+bwO1o6VNI6//0iyCw89LmxQ6kKvLHvqaWQQAACCR0yU9evK+AQAAAACA7kFPFwAAAAAAgAAQdAEAAAAAAAgAQZc0qKurY2gRAAAAAABwIegCAAAAAAAQAIIuAAAAAAAAASDoAgAAAAAAEACCLsDpmjhTQ194UqNfuE+9zTK49FqwtMe3U++VT2r0C09q6IJhZlH3OuOvs2HKWWu17YAys0xS2X0a/YJVPvqFJzV65Y1mjdNjt5/vtgEAAICAEHSBwx16ZM46rb1unFlwTjoTAgQ9Tc9tsxs1oCcGUnp0m3WxdU+o+vZ7VX370zocMQsBAACAMxNBF+B0bV+vT26/V9W3P6GTZtkZwQpI9MjeHd3g5IJ7VX37vfpk5X6zqHt15XUW61Xj/et8T5H9applte3hdWYZAAAAcHYi6AKc68pGKEdhHd4VUcawa9XLLMc5q6nCCpI4/wiYAAAAAMk7Ly8v7yvngoKCAjU0NOjUqVPOxd2up+6X2zgtmH6PLr8w+rpN7780VyuPWa/GX/eM5o3MkA5t1fSKP8belWi5NdxnsvJjr+tVsfpBbXDU6LiOVa7tZdrSx96OUS+2/QTa9j6rWW/uNBd3qNeCpRo+NhR73bbraUfvgRs14IUS5Siiw6uWqGl7tFai5cOUs/aHGhBbnVluaX+bVr6OQlWoekuuhs67UtGjbqqIPkxGt59IWLXRngYTZ7rWochu7Zu1Xl+46tvMus71xMqH6sSqJTo15UkVRk+o7zrNffRvi2S528TaB+e6eq98UoV9jP2wj6et4l4dXmfujyl+rNb5Oa7a2z9SluM95nmymOtNvc3M68Hk3G7vlY51uK4JPx3sm+wcJSWOFbrqmO83dfN15jq/0YX+zHZTuELVC/7iWJDcZzfOrn/cXI+D2baebSphG/ue1xsWaf2PrlBm+E8q/YlZCAAAAHQeQZe0sYMfjsCJFcyQK/Ayo2SdSgY6gjF979faW0crwwy4DH9YGyfmGYGYO/RIifRA9LX9XjmCItb6nYEXR1Dm02qt2vi4dkSDQ4q+jrLq9utkkMXJehDzPjjK+XAdfUB0PDBZ7zMeyqL1XA+Gw5Sz8lpFFsQfFJPZZvwBMb4N68FcngfBeICg4+EcvoEJW/TB3/mw5zlOx8NyPBBgPzS6HigTLFubq2M+2+6YtT5V3KvD66yH3Yv2+wSqzGNL8FDeUZs5gyCx9ii7T6NL+viec++5857fjttMseUZvsEdQ4Jji4k+8JvnYKV0OPp64kwNndKoT2Ll0cCDNzjTUZs5+Z4LW1qvs47awNZrwVL1PbIkXsfnM+3id6492g+6eD+vifff737jd0zXL1yvH1+VKalOfyr9qdo5ZAAAACAlDC9Kk/HX3aB81avCETjZ8eZ6vf9phi6/+o7Ysg0Vz1rLiu/XeI3TguLRyvi0WqtcPVzGacEYM+AiSX+MB1wkzbjaeu//dgRINlRsVVh5mmQmw40FXCRpp1buqZcuHKoJfd3V0mLiTF2cLzVVOB4it69X/a6IMsaWxBOGbl+vTyrCUn6JlSei7D4V5ktNFUZPiylmwEVWfghHwCXpbUqeX9q/WPm6mhTSRdcGkc/kRvUdG1LbrqddD3onF1SoSSENmGLM0BKucAQF/qKWsKQ+ufEhPxNzlSGp6SPnw+hfdNjnITwp9tCilnWStF+R/V0zxMjV22DdR572j57zekeAxGqzfF1s5p3pqM3SaphyrjcDLrLOgfP19vWOgIus6/X1sKR8ZXU6J0p70nydJemLlY6Ai6zjbghLyh8RUGLg6HE+77hH/EWHK8JS/vXKmWgt8bt+2vP6zr+pVZLCHxJwAQAAQFoRdEmLcZqQlyEd+tgY+rNTh1skZV2i8Y5lKyur1XbhaM2bc48uv7BN71c6e5tI6jtOwy6UwgecARfTHRoxUGqr3+l+r+rV/KmUkZ3nWuqp19SsNmUo2+x7nwa9rh2qjNiDfNwXR45L6qML7AcjyZqxpDYs5ZQ8Ges94P4V+kZl5Utt+99qN6iQ0jYjnyji+pU9rM8jUkaOc4xEmpSNUI6ktiPmw5//g647mOJje6PaZLVX5xOaxvUekS+FP4oFqr44clwKDVXI2V5p5z1PbonOuf956rDN0mnitboo1Mlt1v1DbeaydEn3dWbLKTET6XY8y9IXTQFOPVQ2QjmK6MRbxnHW/UNtCun8ArVz/bTjteWaWVrK0CIAAACkHUGXtMhT9oWSBk7WxjnrXH8lA826ko49rv+913r8atu7Pjb0KCYnWxlqU3OTsdyp7yXqJylj5D3GNp05ZbpHr5yQpHwVmjOfuPJbxFm/xsvKP2EOJ7B7dngfJt1S3WbXiujzOnOZLfTNFHsX/EWH7Sl14w/ES2O/8KfGfjhtCscX2b1OPD0jupJ9zjPG/tB44HfmBekmBd9URnvn06H3SuNadOVaCUI7+5XydWbxJtI1h0DdGJv5KvrXXg6d09Wrfx9JIQ2Y19VtCwAAAHQOQZe0sHqX6NBWTV9d5v1z5U2x8rXMG5mh8KF6ZYy8R48MdxYm2Qvl2N911E5y69ne6jJjWFLXsn7pDqvWmPXE+jNzOQxTztoS5UTCaorkq3DtTPfDod2zI6N/+0N/UttmDxL5R/K/xsfEp96tXrVbbQppwLxOBF7s3hHu4IadeDSw4SFJsM95266nfc7lvb55PrqMq0dFYvFcKo79XrU7uJ4uHenUddYRO5dKZLf2Oc7Pvl3B9XSxeq4Z7er4M3O1AAAAAN2NoEta+A0jSuQOPWInyH2gYqve/1TKn/iwZjir2AGV/MHxXDBe/sOIkjV+2FBlqF4f7XMuPb11RvkO6Umg14K7NCAU0eH1T+jw62EpdKXyXDk77CElHeQZSWWbHgmGjJzWOqN88pVYOjEEws/29frEDrz4BQLKHitXeXm51i+83iyyhhYZD8zVt9+r6oqOc49Yw7m80tJmCYYRnZ40rTM6vGtEez2BrHOr8OtJBfvS0mZBX2d+7KBd0+udzCfUGUkFvfzPde8p7fSGuWGR1peXq/yxdi56AAAAoBMIuqTJhnfsPC0l7QVKxmnB9MmOhLt2fhflqcT1vj9qy942aeBkrXUlxL1Dj8Tq2clwPXWS0Pd+/b8jM9S2d6t/DpqBN2jB6STYXVehw5GQBszrIP9D2X0a7kyKaed3yRh7l6PXhp2ANHSlhq90PugOU85KR6+YZLfpMUw5M62km8fMX8ntB7zTG2rzFx3bFTGOSeq9skQ5CqshyUSfMWX3aaiRSNYKgPgNLSnTKPu5M/NbE+UOu7TzML7uIzU5AgtfNEVceV7anYY5LW1mn/P8Es+xdt5+nTouV7LVzrHOp3ffbtSA2PVpPfS7eguV3Zd4CExa2izN11ky7Bw1zgBU75XBDi+KJurNKWmvZ5eVENp5rnstWKrCPpGEPY2uH/ctZUpS/igRdgEAAEA6MWV0WjmmZ3YIby/TA/ui0zlbQ4KcUzJbU0tneGcrik4bHeOcCtoWnXLauUyOKak72CcvezppR14Yc3+TFZ+e2SE660ts6lpzCl17yIIxw5BzqluLUW5rd5tJlHtEpweOie9ve8GH+HS8Fk9dczamBNPZ+k0R7FmXpw3jyh4r13fzpdZ3f6mZK153FLQ/da85PbOr3SK7tW9Wo/rGppo23txhm5nTIyeYztlzzuU+7ym0mSU6bXN8iWfaZGf1GJ/2becYLcb6Iru1b72U57O/Uvvr857vuMCuswT1PIz9btv1tOp1l/sc+55Hm2P/fD+bNtdsV37HKe+xutYXrlD1AjmmR3e8T3ZPlx9doczwn0imCwAAgLQi6HLWs4Iu/ToZODnbeB4uAQAAAAAICMOLAAAAAAAAAkDQBQAAAAAAIAAEXQAAAAAAAAJAThcAAAAAAIAA0NMFAAAAAAAgAARdAAAAAAAAAkDQJQ0KCgp0wQUXmIsBAAAAAMA5jKALAAAAAABAAAi6AAAAAAAABICgCwAAAAAAQAAIugAAAAAAAASAoAtS1/d+rZ2zTo8MNwsAAAAAAEAUQRecOy55WCOWbNU1Szar/yXOgknqP3+rrpkxy7kQAAAAAIDTQtAF55yTzVL+JAIsAAAAAIBgnZeXl/eVc0FBQYEaGhp06tQp5+Ju11P3Sz1836RxWjD9Hl3eslXT37lEa28drQy7pG3vs5r15k5v3Qujr9v0/ktztfKY9WpGyTqVDHRUN4S3l+mBffbwo1tH62j0tW1GyTqVZFVr1cbHtUOShj+sjRP76v2X5urw1c5116ti9YPaIEm6Q4/MmSxtL9OWPs9o3sjo3jvrJOmShzXiB1dJ77yr1qv76PjSeYpIdk+XBco/Xq63N6yNVT//O5t1+dWZ8fcf8Ckf9rHef+q/dfGSUvW3l598Z6U++vO2WD3LLOU76ki12hfbPgAAAADgbERPl3PFwMnaeOtQ7X+pTNNXl2n69npljLzHkZflDj0yxw7OrLbqrNorXX7rM1rQ16qxocJ+70vVarODLNG601e7AyzJy9Dlt65TiaLbfVbvf5qnkun3a7yjVv7EdZqX/Vq7dZK3TccPFGrQdyaZBTZruNHlVzdq39LJenvpZL29tFxHBpfqmvkP63xn1eyrdPmSm/TZb+x6FbXqffUC5V/hqHPJwxqxpFSZ76y01zVZ+w4UaviSVQo5qgEAAAAAzi4EXc4Z9apYHe+1on0fKyypX59xkqTx192gfNWrouKPsXfseHO93v80Q5dffUdsWRDa9j6r6bHt7tQb9W3ShdkqcFb6tFqrOqqTgsi2d6Vhk9wBlKgrSpWf3arwb5w9UdYqXFErZV+li50BFUlHKqbqyN/tF++9ryOSMvvGAzqhSVepd/O7qnH0folsKNcRtRf4AQAAAACc6Qi6nCs+bVada8Ef9cDqMnt40ThNyMuQDn1sDNfZqcMtkrIu6WSPkuQcPe4c4iTteHOuphtDh9rqd1pDktLl7w/q4HFvAEWSQsMLJTXqs2ggJconoCLV6vh7jpces9RnsHRy/zZ97lpeq8+apd45ha6lAAAAAICzB0EXSMpT9oX2EKQ561x/7eVwOdNF9tWq/3XGcKGo5uNGkCQupUDJJf+kTEm9r16ga5ZsdfwtUH62WRkAAAAAcDYh6AJJ9Wr+VNKheD4X11808e3Z5r1yhXWpsl3TR3fsZFOtuSixv/+3Wu3kutF8Lq4/R2JeAAAAAMDZhaALUh9GdOzvOurIB5OcOzSix/Wa2abm/VLOKHfPlci+WinbJxhzxeXqr1Y1fWjOTNQehhEBAAAAwLmKoAskSRveqVbbhaM1rySZpLlWz5iMkZM1wyxSPCiTPzi6Lmva53yjWk/w+Z9fVevVNynHufC9coWbM5Vf6hx6NEv5JYXSgVfjSXOTsk1H3qyVBpdqBElzAQAAAOCcQtAFlmOPa9bqrQr75HWJTysdtVMrN25VWHkq8a33Rz3wUrXaYuuaLG0v06q9be7V9AhrdfxApnq78qts05GnViqsq3R5LAeLPeVzZ4YDvTdPb//mXcmT12Wz+pu9aQAAAAAAZ43z8vLyvnIuKCgoUENDg06dOuVc3O166n6ph+8bAAAAAADoHvR0AQAAAAAACABBFwAAAAAAgAAQdAEAAAAAAAgAQRcAAAAAAIAAEHQBAAAAAAAIAEEXAAAAAACAABB0SYO6ujqmiwYAAAAAAC4EXQAAAAAAAAJA0AUAAAAAACAABF0AAAAAAAACQNAFAAAAAAAgAARdAAAAAAAAAkDQBQAAAAAAIAAEXQAAAAAAAAJA0AUAAAAAACAABF0AAAAAAAACQNAFAAAAAAAgAARdAAAAAAAAAkDQBQAAAAAAIAAEXQAAAAAAAAJA0AUAAAAAACAABF0AAAAAAAACQNAFAAAAAAAgAARdAAAAAAAAAkDQBQAAAAAAIAAEXQAAAAAAAAJA0AUAAAAAACAABF0AAAAAAAACQNAFAAAAAAAgAARdAAAAAAAAAkDQBQAAAAAAIAAEXQAAAAAAAAJA0AUAAAAAACAA5+Xl5X3lXFBQUKCGhgadOnXKubjb9dT98uh7v9beOloZqlfF6ge1wSx3mFGyTiUDHQsObdX0ij86FqC7hWZs1fDB0sl3VuqjP28ziwEAAAAASIieLt3ECri06f2XyjR9tf1HwAVpdP53NuuaJasUMgsAAAAAAF2CoEu6HXtcs1aXaXq7vVzu0IiBkg69ppXHzDL0JJENk/X20snnbi+XSx7WiCVbdc2Szep/ibNgkvrP36prZsxyLgQAAAAAOBB06UZtzfXmIqBHOtks5U8iwAIAAAAAqSCnS7rEcrnYPq3Wqo2Pa4e7lu0OPTJnsvrtfVaz3txpFiYtd1m1Zo87qi1Fm5T70iKNzbILWnbouVtnqNFZeW6llkwdEn9du0lL717orCFphe6qmqb82OuIdq0Yra2V8Rpj1tRpijZp6YuDNH/heGXby8ObC/T8M/F6sbqF8dfNO5frqcVrY69zl1Vr9qV79dytB1Xs2K5ZL1Z3nGOgjO/+e+v5rSsZ0VwuUUcqJiv8nrNG1CzlLylV/9jrVoV/M1VH/u6q1LFLHtaIH1yqpt9M1WeTHNtuflfvP/WgPndVbm+bZpmpVvuWzlPEXJzIJQ9rxA+ukt55V61X99Hx2Hsnqf/8Bco/Xq63N8Tb9/zvbNblV2fG33/Ap3zYx3r/qf/WxY799M+ZYx5L4n0ve6xc381v1Xu/mqnlr5mlAAAAANA9CLoEYEbJOpVkmUGXcVow/R5dfqGrqkOb3n9pbkrDjZwBhnhwwQ6cOIISVj05AijeOgmXvTRIlY4ATjyQEg/IJFy/M/hTvMEK0nj2K+QO7tjBIWcQx7t+a1nx4dGuQI+1bzXaUlSsPY5tqpOBFykedGj1DbrYQQFXYGGW8uf/kxo8gZIO2Nvp7QpA+Kz/ilW6pqTQFaSIBjrMwJC1vDFhoCIpsaDLSh3MWaBBTdHtmkEX+3W2MzBi778jcBQPyjgCRfYxufbfsd3ocVqBML/AS5l+Uf5dFUhqffeXmrnidVcpAAAAAHQXhhd1mZ1auTGaNHerwpLa9j4bT6K7OrWAi1N4c4EjqLBQe2sl5QxSriRphYrHhdS88ylHj5WFen5zjVQ4WZOL7UXFg5QtKbzH2XtkoZ43e8xInh4wjYu3KqyQhtxgDT/JXTZZ+arRFud7K2foxZ0R9zZt4c2O3jTP7FZYUvaA+FCWi/uFpJa92uPocdO42B1wUfEGTSiUwpvtgIvi28weN01jHFXT5pJ/UqakI/ucAZ21CqcacHE6UO7o8bFWxw9I6vNPOl+yAhvXFRp1pM///LTCzVL/6x626wUjsu1dadgk/21cUar87FaFf+MMiKxVuKJWyr5KF1/hqq0jFY7eQO+9ryOSMvtOipWHJl2l3s3vqsZxnJEN5TqiQg36TryeZZ0+DEtSq/62k4ALAAAAgJ6DoMsZL6KmGveSPXcXaGk04DH3SuUroprXjJ4eNUfVrJByoiOOKg+qWVL+1DrdNddd1cMIgEg1amqRsvsNkTRLYy4NSS1H1eCsIqnxtb3ubUqSarTXGJZkajgakbLGa/ZLG+xAklfuDSOV7bOuxsNHJfVTrhHoSYu//7daJfUv2ap8I6jQWe4AjuGSScrJlk421RoF29S8v1XK7uMfEEmXvz+og8e9ARRJCg0vlNSoz8xhVT4BFalWxz29hpxmqc9g6eT+bUbwqlafNUu9cxxj1mzrflKq0lKGFgEAAADoWQi6nOVyB/STFNLYhXVaUuX4c+RjsSzU80XLtavFCrxY9ao9vVKS1nTQp4eMxdmLJRmNi0dr6eYaK/AS3f81K1x1Lu4XkjREU5zHWFXnzmOTdmsVXrrS6mVSslXX+M7yk36tx8zcJ1G5+kbA247sq03co6b5eMIePn6BkoTsHkS9r15gt2n0b4Hy3RctAAAAAPRoBF3OclZPj4h2rSjQ0iLvnzv57VptvdUuW7FDzQpp7MLTCLwk0Hy4nd4ciTxTHNvnLbWSCqe5Ai8NRyOSarTF5xiXFrmTAafXNh15yppW+u3fvKuTylT+D4IPvPjz6WmSbu+VK6xLlZ3i8Xl757TD7kF08p2VVruaf47EvAAAAADQkxF0OduZw4iSVTlDT9mBlw7fWzxJQ7Ki+WDWas/HEanwSk8elURDgFK152478BLLWxPwMKJk/f1BfWQHXr6RaBzU6fj7NjU1S/2Hmz2FJil7WKZ04H1XgtnPjzUG0Ptlm5r3Szmj3D1XIvtqpWyfYMwVl6u/WtX0YaLeOX4SDyNKpOyxcpWXr9eiG8wSAAAAAOg+BF3OdpUz9EatlD+1gx4rcys1f5n7Yd4KknhzxrjN0uS545XdskOVdjDFSqw7RFOcQ4CKN+i2cSE179wUT3SblFma/FKlEcBZoZGFxhCmZzZpV0tIYxeadQN0xSqNMJK6nj/qUvVWqz5LNLbqtGzTkTdrpcGlrhwy53/nh1YS221GD5DG41bPm0lmkOb0fP7nV9V69U3KcS58r1zh5kzllzqHHs1SfkmhdODVFKfQjh+n2b7+yjQqX5Iy9a1x15uFAAAAANBtmDI6TcZf94zmjcwwF0v2LEWz3tzpWHKHHpkzWf08y1PjN5VyIs7ppWOcUzr71nFMv2yLTxnt4JpmOsqeNtqxxDkNtGLbO2psw3pftmuaZ++64lNkuyW/f+2xpzo2F0uS3FMWx6dA9i9PWoKpqUMztmp4n/iUy1J8iuW4draZSl0/PlM3KzZ9szXbUny4T3Ta6Fg119TWSjiNtdXemUZd5zTacY6pph3KHivXd/Nb9d6vSKYLAAAAoOcg6IKUjFlTpyk57mANAAAAAADwYngRAAAAAABAAAi6AAAAAAAABICgCwAAAAAAQADI6QIAAAAAABAAeroAAAAAAAAEgKALAAAAAABAAAi6pEFBQYEuuOACczEAAAAAADiHEXQBAAAAAAAIAEEXAAAAAACAABB0AQAAAAAACABBF8BwYd+LNfnepSq6e6FZBAAAAABA0gi64KxSdPdCTb53qS7se7FZBAAAAABAlyLoAgAAAAAAEACCLgAAAAAAAAE4Ly8v7yvngoKCAjU0NOjUqVPOxd2up+6Xevi+SSt0V9U0Ze9crqcWr40tzV1WrdnjjmpLUbH2GHXzY68j2rVitLZWxhbYzHo1vuvJ3rlcTx2epiVTh8RKwpsL9PwzsZdpMeSaSRr17f9H/9fXvmYWSZLaWk7ojY2/1qfHGiSf+v/z+Sm99eJvdOTAPsnO6TJh+r/pi89aVbVmhSSp/+Dhuva2H+jr51+ghv0fascfV7vqZmRdJEn6P19+qQ//+v9Tzdvb7K1bQ54kqb76bdd2P3nrP/TBX16K1et6qZynjs65xbquQvEFtZu01JEbJ3dZtWZfulfP3XpQxY71NRvXpySpeIPmLxyv7NgCY5vFGzR/4UjVrBitxtvqNKXQXt6yQ8/dOkONsffJZ/8TXNtzK13tYO4/AAAAAKSCni6w2Q+ltZu0tKjA/tuqnLkblOusVrxB8+0H9Wi9LbVDNKWqUmOc9SRlj1ukJVOlLXa953ZGlD+1WpOLjYqnqebtbXp5+b0qf3iemhsPqa3lhP7yzHKVPzxP5Q/P09Ynl8QCLuPvmKPR3ylV7buvxcpPnmjS+Dvv0ZBrJpmrlhwBF0l64/dPxwIu/QcP1//6f3+iLz5rja3rSO3HGvXt/8ezruzcgRrxLyXa8YdnVf7wPDXs/1CFV93gqdcdOjxPSZ5zK+Ai7VoRvX4K9NzRybprrqOSJGWN1+yqadJmu97mGmWPW+Sql7usWksWjldztE5sm+b1E9LYhXWacDS6b5sUzhqv2XawzJLctZ27rFpLpvZz7P8mhQunaYlrXQAAAACQPIIusBQPUrak8B7nr/oL9bzRY2DMbeOV3bJDLzp6Jey5e5PCGqIJy2Y5ato9Dhw9Expf26tmhZTj6EjQlfoPHq6+eUPVsP9DVw+TvX99Rf/nf/4/5Y2+xlVfdk+WK/7v6ZLk6g0jSYVXT5Ts90d9WPUnnToZ8azr/3z5pT76z4rY+4/W7ZekWA+Z5PyLHtpYoYqKBH8bH9K/mG9JRgfnKdlzfnG/kNSyV3scvUcaF4/27dnk6knzzCbtapHyx0SDGytUPC6k5p3LXe+1thnS2NuMIEjtJkcvmYXaWyspZ1A8oJLUtR3d5lOO3i8L9fzmGqlwctoDhQAAAADODQRdYKk8qGZJ+VPrvD0TYlZoZKHU/PE2Y+hGjZpapOx+RjSl6aC7XuUMPVVkDlvpOv2HDNfXz79AJ48fcy0/cmCfTp5oUq9vZLpmPfra13tpwvR/U68LvuEJuFzY92Jl9R+okyeaXMs/PdagLz5r9azr1MmIjhz4r9jrzvlPPTS9RCUlCf6mP6T/NN+SjHbPU/LnvOFoxOrF8pLRO8qjRntd18BaNTY5AiVzr1S+pObDxnAjv4CKJ5jiI5lre+6VyldENa8Z26w52q2BQgAAAABnNoIusC3U80XLrR4HU+u0pKpOS8yhHHaPgexxi+zy6N8ijc1y1OvB/s+XX6qt5YS5WJLU64JvKOPCeAaRC3P6KSPrIn1x6jO1fdrsqptxYbZ6XfANZecOVOmDq1x/2bkDXXXPaCmc88bFo7V0c409fMiu1+mhORE11ZjLbFn9lNqE4B1f27kD+sWGKrmO05VTBgAAAABSQ9AFDmu19VY7n8WKHWpWSGMXOh5O7R4DzY7cHq6/MzzhqBlcaW48pOo/l+uC3iFNmP5vrp4rbZ8264tTn6m58VAsn4vzz5lHJn0CGl7UnlTP+TPFsbIttZKCyInSclSpt2z713bj4aN2cl2fY+zG3lkAAAAAzmwEXc5JszTmUscMM34qZ+gp++E0PrTCO6QkLW5YpPXl5Sov/4XKzLIUfRY54emxEnWkZp/+z//8f+pXMMy1vP/g4ep9UY5ajhzyBEpq3t6m2ndfU0bWRbr6lvjeJRpGFKyAhhe1q/PnfM/dduDFGA7kZQxhema3wgppyA1GjiCzXmf5XdsMIwIAAAAQAIIuZz37ofnSSfaD7yxNfsk7NERzKzXfSISbe8NIZbuGeazV1soaqXCap+5pGXyRMiVJBSpaeL1ZmpKTx4/p6+dfEEty63TkwD4dq/9E/Qsvdc0aNPLbN0uSat/Z7qgd98FfXlLD/g+VnTtQ4++YE1teX/22LugdcgVjzj7JnvNZmvySOYOVFSTx5IwxjFkzTfmq0RuOZLiVOyPKHjffNQTIWy9JyVzblTP0Rq0CmV0LAAAAwLnrvLy8vK+cCwoKCtTQ0KBTp045F3e7nrpf6uH7ZrGnzLVfNe9crqcOT7OnCY7PWmNN+evsAVPjKo8p3qD5nlwXEe1aMdqe+cUxRa85/MTX9Vr02x/ripDU+u4vNXPF62aFlIy/Y44uHjYq9rqt5YTe2Phr17TR7ZVf2PdiTZj+b/ris1ZVOYbGFN29UNm5A9XceCi2PDqd9NfPvyBWT5I+ees/YjMkFd29UL2+kenaxpBrJmnUt/8f1b77mmsmpa6Vwnnq8JzLc50peq05giTea8yePcmYJUt+dc169j41O2dCkjRmTZ2m5LjretaV4Nr21vPZLgAAAAAkiaBLGvTkfTtTXL9wvX58VabqtpTqp781S3G2sIIaR30DHgAAAABwtmF4EbrfDYs0+6pMKfwnAi4AAAAAgLMGQRd0o+u16LflKv/RFdK7v1TpT9aZFQAAAAAAOGMRdEE3el3Lv1+q0tLS087jAgAAAABAT0PQBUCXaVw8WkvJ5wIAAADgHEHQBQAAAAAAIAAEXQAAAAAAAAJA0CUN6urqmC4aAAAAAAC4EHQBAAAAAAAIAEEXAAAAAACAABB0AQAAAAAACMB5eXl5XzkXFBQUqKGhocflKOmp+5WqGSXrVDIw/jq8vUwP7HPWAAAAAAAAZwN6unSxDRVlmr66TNNfqlabWQgAAAAAAM4aBF0AAAAAAAACQNAFAAAAAAAgAOR0SatxWjD9Hl1+YfR1m95/aa5WHnPXkiT1vV9rbx2to+3kdDHzv7TtfVaz3tzprCLpDj0yZ7LyY6/rVbH6QW1w1bFcv3C9fnxVpuq2lOqnvzVLAQAAAABAOtHTJW3u0CNz7tHlLVutnC2ry7Rqr3T5rc9oQV+zbsesgEu9Kux1TV9dpm3ZM93r6nu/1s6ZrH57n43VqTiUp5I5D2uGo5rlek38VqYkqWBkmVkIAAAAAADSjKBLmoy/7gblq14VFX+MLdvx5nq9/2mGLr/6Dlfdjo3TgCxJhz529VjZUOHuNTPj6tHK+LRa/9vR+2VDxVaFladJ142LV5Qkva7tf2uVJNXtXWeUAQAAAACAdCPokhbjNCEvwxMkkXbqcIukrEs03rW8I/b7Bk7WxpJEAZs7NGKg1Fa/Uztcy+vV/KmUkZ3nWipJr6+YqdJShhYBAAAAANAVyOmSFmZeFcOn1Vq18XF3cCSJnC7jr3tG80ZmxF67crrY74+XGg5t1XRHrxsAAAAAANC1CLqkhZ1AtyWFQEcSQZe4eILeeODFCvT0802uCwAAAAAAuhvDi9Kis8OIkrVTKzc+q/ddw4YSDyNK5PqF61VeXq5ffN8sAQAAAAAA6UbQJU02vFOttgtHa17CHCypuEOPTL/fHcDpO07DLpTamuvtBTu1ck+9NHCy1nqS5vph9iIAAAAAALoSw4vSyj+3Szg2hMi/3FKvitUPxhPx+uRsia/Hwaee1Kb3X3LPdCS7p8uPr8pU3RaS6QIAAAAAEDSCLgAAAAAAAAFgeBEAAAAAAEAACLoAAAAAAAAEgKALAAAAAABAAAi6AAAAAAAABICgCwAAAAAAQAAIugAAAAAAAASAoEsaFBQU6IILLjAXAwAAAACAcxhBFwAAAAAAgAAQdAEAAAAAAAgAQRcAAAAAAIAAEHQBAAAAAAAIAEEXpK7v/Vo7Z50eGW4WAAAAAACAKIIuOHdc8rBGLNmqa5ZsVv9LnAWT1H/+Vl0zY5ZzIQAAAAAAp4WgC845J5ul/EkEWAAAAAAAwTovLy/vK+eCgoICNTQ06NSpU87F3a6n7pd6+L5J47Rg+j26vGWrpr9zidbeOloZdknb3mc1682d3roXRl+36f2X5mrlMevVjJJ1KhnoqG4Iby/TA/vs4Ue3jtbR6GvbjJJ1Ksmq1qqNj2uHJA1/WBsn9tX7L83V4aud665XxeoHtUGSdIcemTNZ2l6mLX2e0byR0b131knSJQ9rxA+ukt55V61X99HxpfMUkeyeLguUf7xcb29YG6t+/nc26/KrM+PvP+BTPuxjvf/Uf+viJaXqby8/+c5KffTnbbF6llnKd9SRarUvtn0AAAAAwNmIni7nioGTtfHWodr/Upmmry7T9O31yhh5jyMvyx16ZI4dnFlt1Vm1V7r81me0oK9VY0OF/d6XqtVmB1midaevdgdYkpehy29dpxJFt/us3v80TyXT79d4R638ies0L/u1duskb5uOHyjUoO9MMgts1nCjy69u1L6lk/X20sl6e2m5jgwu1TXzH9b5zqrZV+nyJTfps9/Y9Spq1fvqBcq/wlHnkoc1YkmpMt9Zaa9rsvYdKNTwJasUclQDAAAAAJxdCLqcM+pVsTrea0X7PlZYUr8+4yRJ46+7QfmqV0XFH2Pv2PHmer3/aYYuv/qO2LIgtO19VtNj292pN+rbpAuzVeCs9Gm1VnVUJwWRbe9Kwya5AyhRV5QqP7tV4d84e6KsVbiiVsq+Shc7AyqSjlRM1ZG/2y/ee19HJGX2jQd0QpOuUu/md1Xj6P0S2VCuI2ov8AMAAAAAONMRdDlXfNqsOteCP+qB1WX28KJxmpCXIR362Bius1OHWyRlXdLJHiXJOXrcOcRJ2vHmXE03hg611e+0hiSly98f1MHj3gCKJIWGF0pq1GfRQEqUT0BFqtXx9xwvPWapz2Dp5P5t+ty1vFafNUu9cwpdSwEAAAAAZw+CLpCUp+wL7SFIc9a5/trL4XKmi+yrVf/rjOFCUc3HjSBJXEqBkkv+SZmSel+9QNcs2er4W6D8bLMyAAAAAOBsQtAFkurV/KmkQ/F8Lq6/aOLbs8175QrrUmW7po/u2MmmWnNRYn//b7XayXWj+Vxcf47EvAAAAACAswtBF6Q+jOjY33XUkQ8mOXdoRI/rNbNNzfulnFHuniuRfbVStk8w5orL1V+tavrQnJmoPQwjAgAAAIBzFUEXSJI2vFOttgtHa15JMklzrZ4xGSMna4ZZpHhQJn9wdF3WtM/5RrWe4PM/v6rWq29SjnPhe+UKN2cqv9Q59GiW8ksKpQOvxpPmJmWbjrxZKw0u1QiS5gIAAADAOYWgCyzHHtes1VsV9snrEp9WOmqnVm7cqrDyVOJb74964KVqtcXWNVnaXqZVe9vcq+kR1ur4gUz1duVX2aYjT61UWFfp8lgOFnvK584MB3pvnt7+zbuSJ6/LZvU3e9MAAAAAAM4a5+Xl5X3lXFBQUKCGhgadOnXKubjb9dT9Ug/fNwAAAAAA0D3o6QIAAAAAABAAgi4AAAAAAAABIOgCAAAAAAAQAIIuAAAAAAAAASDoAgAAAAAAEACCLmlQV1fHzEUAAAAAAMCFoAsAAAAAAEAACLoAAAAAAAAEgKALAAAAAABAAAi6AAAAAAAABICgCwAAAAAAQAAIugAAAAAAAASAoAsAAAAAAEAACLoAAAAAAAAEgKALAAAAAABAAAi6AAAAAAAABICgCwAAAAAAQAAIugAAAAAAAASAoAsAAAAAAEAACLoAAAAAAAAEgKALAAAAAABAAAi6AAAAAAAABICgCwAAAAAAQAAIugAAAAAAAASAoAsAAAAAAEAACLoAAAAAAAAEgKALAAAAAABAAAi6AAAAAAAABICgCwAAAAAAQAAIugAAAAAAAASAoAsAAAAAAEAACLoAAAAAAAAEgKALAAAAAABAAM7Ly8v7yrmgoKBADQ0NOnXqlHNxt+up++XR936tvXW0MlSvitUPaoNZ7jCjZJ1KBjoWHNqq6RV/dCxA8q7Xot/+WFeEoq9b9d6vZmr5a+5awfiBflVxqwpb3tWj0x/Sf5rFgRikx+6foME6qFcef0O/M4s7LaTFs0p05Yk3dEv5QbMwKd8rvVM350mteyr0r9siZnFqckfo99MvU2bkAz2x9iNtN8txzip7rFzfzZda3/2lZq543SwGAAAAegR6unQTK+DSpvdfKtP01fYfAZfT8LqWf79UpaWlKt1SZxZ2jX8c7KKAC849s5S/ZKtGfGeSWQAAAACgByPokm7HHtes1WWa3m4vlzs0YqCkQ69p5TGzDEhGi05EJEVO6IBZFBPS4ll36uX779TLpYPMwsD8rvwPuuXxP5x+LxdJaozoiCSdiNDLBS7rfmIFWenlAgAAgJ6MoEs3amuuNxfhjFSr4y3msh4gd5D+ORTR7j0Hpbw8fc8sBwAAAAAEipwu6RLL5WL7tFqrNj6uHe5atjv0yJzJ6rf3Wc16c6dZmLQxa+o0JWeHnrt1hhqjC4s3aP7C8WreXKDnn4nXzV1WrdnjYglPpNpNWnr3wvhrSdIsTX5pkcZmRV9HtGvFaG2tjNew1nNUW4o2KddZt8XYj2R8/xcqn9JP7/1qpg5918rPYKnTn0p/qnWOqtcvXK8fX5UZXxD+k0p/4qzh4Fivf06XMv2i/LsqiL32bi81/6KHNv5MV/3jJZXM/41Z2G0mTirRfYVhPbE2opvvnyBV/kE/+dCsFc/B4lJv53QZNUEvF0uvbDyhb0+/TJk6qFce/0ADZ5XoypCjns96Dvhsz9ynwfbytOR/adcs5S8pVf/Y61aFfzNVR/4efT1J/ecvUP7xcr297Z804gdXqbddcvKdlfroz9ti70xGaMZWDZd3XUcqJiv8nrvu+d/ZrMuvdlzbB8r19oa1/mWGlPctwf3B916iFbqrappiH0uf+4EkaW6llkwdEn/tubdY68neuVxPHZ7mqhs29iMZ0VwuUXVbSvXT3zprRJmf89PL82Ru18wlY92jjhr3Emsf+sXqWq+1pVSv9Hfe0/zvQeZ9L/E2X9FAZ06ryHv65feXy6pp7oP5Xu/+dtxmZj1z/x3bPHKzyqc4avqeL3t9rv0GAAA4O9DTJV1iw4rKVHHILJSkcVowfZ02zlmnjXMmK19Sxsh77NfrtHHOM1rQ13xPeliBEmnXigItLbL+njs6WXfNddZaobuqFmls06Z4nZ3S2IXVmlzsrCdJQzSlapGGfLzcrrtJ4azxmr1mhVkxCZm64kfl+q7+ZOVjKf2l3osU6Lu/XaTrJTtBbrn9cGDnbCn9k+ryv6vyWJ0U3LBI6+2HAWtdpfpTuEDfLf+Fysy6Z7SQJhaG1Fp7UNt1UB/WS4OHmUOMrOFHN1/0gZ543BoSdMvjFdrtiX1k6dtTLtJfH39DBzRI3551vf65tkJP7Im4etBEhxXdsvEDtRprcAldpvvuv0wnNtr1Kw8qc0yJHhtlVkyTK1bpmiWlynxnpd5eOllvL52s99+R8n+wVflXGHUHl+qaH1yqpt9Y9d6uqFXvqxd46yVjcKmu+UEfHYxts1X9Szar/yXRCpPUf/5WXX51o/bZdd5eWq4jg0t1zfyHdb6kz/88Nb7cDrJEj+HtpZNTC7ikxA641MbvB0uLtipn7gblOmrlLqvWkqn9HPeWTQoXTtMSn3tB9rhFWjJV2hK7v0SUP9Xv/tK+6LCi0l+91851Zj/Eh6P3lVKVllbpou914p4RC7jUOe5BparqO1uLbjBrJqdgSrl+/K2/6Ze+9zxL2WPGfe9X70lX/VjrF5pHUKDvlv9Y3/pb9J72J9WFrtCPH0v1jpZkm6VwD8286scqn6LYMfzy3VYVTFnvbbfvj7ICOKFvaaJZBgAAcIYj6NJldmrlxmjS3K0KS2rb+2w8ie7quYHld7m4X0hq2as9jl+oGxePNnrCTFa+arTF8Qt14+KntKslpLG3eR+gwpsL9NRi69d4aaH21krKGeR6IEtW67u/dPRaeV3b/9YqhS6yekF8/2ZdEWrVe79y/oq6Tj/dUieFrtDN348tTErZd69QZuQ9Pef4xXfdT/6kOhWoyPMwkw4/0K8qKlSR6O+pH5hvSA97aNF/7bMiKL/b7zPEaNRlujIU0e4tHc0KFJJqP4jNkJSpsNbEeqVkaWAnTvqBygoti3ap+LBeByT1z3H0xEqbSep/XaF0oNwVoPj8z08r3Cz1v84KbsTVat9SRw+Y997XEUmZfTuTwLZV4d/MU7SlPv/wY51Upr4Rba8rSpWf7a4jrVW4olbKvkoXdybQky7Fg5QtKbzH2WNloZ43esIUjwupeedTjt4vC/X85hqpcLI3mNKyQ88VFWuP/bLxtb1qVkg5jk4yaXPDQPWTVLfX2XdknX7aqV4U12tgH0nhD109Udb9xK8HSJJcPTpe1/Ltde6Aww2LVJQv1W1x3PdeW67n3m1V5lU3e4IbdVucuW3W6cOwpD4DUwswJdlmKd1DI+/pl44eMK/v/JtalamLol3con77oeokKfI3be9smwIAAPRQBF3OAQ1HI1LWeM1+yf0rddwsjbk0JNXujj0QWdaqsckvmBJRU41rgfbcXaClqQ4vsh094n4Men3FTJXaX9TLRhZIOqpD5hdx+0t6v/6pPFaUaVS+1Pq37caD1wGdiEiZfc0ngXT4jX5UUqKSRH8BDUeaODxfmZGwtkdPyLETatUgjXL0JvnesEGSs05C8eCNlI6ktgf1oc8wp0BcMkk52dLJplqjYJua97dK2X3cQZfm4/rc+VprFe5sj5Lmj9UcG77kFRpeKKlRn5l1TivQkyaVB9UsKX9qndEjzmHulcpXRDWvRYOvtpqj/sGUpoPu+0PlDD1VlPrwoqS8dkhH7R4lv0gxMOv1ug4dl5T/XZWn3HvEn+cedOCEKxhx/bhvKVN1+tAYhvP6kaOS+mmgqzdIq04Y2bTX/aRUpakGmJJqsxTvoccPueu9tlwzS/2GF63TT0s7sc8AAABnAIIu54DGxaO1dHONFXipqtOSqjqj+/8Q5WRJKpxmlTn+phQ6qnWXdmbo8XzJb4/9S27mVT9WeXm548+RC+E0tB4zH+y7izW0yBUcaTyo/4pIg68ZoYnuyueE1mOJgia5+kZsuE838AR54nrndOeHb6GeL1quXS1W4MW6H7iHAuUO6CcppLEL3feMJQvHK9u5qm6xTj8t/aXei1hBBOtz7jOsJUnrfmINjVH+d2P3De8wn/QZ3DfTHjbkvE+Vu3KjpF8SbRbwPRQAAOBsRNDlXPFMcSw3w5ZaO8ASC7zUqKnFToAZy9/g+OtkD5au0HosUTjGh/1LbqsjF4HrL1Fi3tPSDcOLcgfpn0OS8iZY00Xff6devt9OfBvK10T/7k7nKJ+eJj2Et3dOV1urrbfa94AVO9SskCvHU+Pho3ZyXZ97RlA9WFLyupZ/35n/JVNX/KjzgRerB140B4sVeAgq8HLgWKudnNbnPlV6GsOaOtRBm3XLPRQAAODMRtDlLJN7w8gOf2Xec7cdeIkNG0o0jOh0WUlwy8vb667evnV7jVwHUd8fpQK16m87U+mMnqAL/Gn7Tz00vUS3P/yfZkG3DC+aODzfnmUomhzXmeA2pH8ebv0kfeB4JJ47J2rUZVZw5mzx921qapb6D59lFExS9rBM6cD7jnwqXSuyr1bKvlTZZk+bKy5Xf7Wq6UNn75xafdYcVO+XFRrZ0WorZ+gpO/ASGzaUaBjR6fr+L6zeE51JlJ3Ia8s10w4iePKJpOx1Lf++HXjp6F4STRDbAXM4kf8wonS6XhO/lXhWLClRmwV1Dy3TL9J9zgEAAHoIgi5nMCtXy0iNsX959kwLLdnTQFdqjGuZ/ZDlyLGw58Udau70DEQJ3DBR37J3p2BkJ3Mh/PYVvRfJ1BWuGTTK9IspBVK4KsVffO2ElfnfTe8v1P/rIb1QUaGKjQ/pX8yyLmcPLaqvjyW+jbGHGGUWDtJESdv3hdWqQfr2JPsk5Y7Q74uz1NpdUYhAbNORN2ulwaWuGYjO/84PrSS224x8JF3pvXKFmzOVX+pM5jtL+SWF0oFXHdNZS9I2fXZc0uCbHLMfdUI0V8uY6OfcnBbaNrdS85e5A1VWQNeRz6lyht6oVadmIGqPlcfpNGey+f4vPJ9xK7DhzX/SsTL9wgwG2Pc2Z087K1BSoFHRAPP3f5HccKAbFmn2VZlqffeVeNLc6H3vR94ZgVJnB0q+NdExI5zPcKCk2iygeyizFwEAgLPYeXl5eV85FxQUFKihoUGnTp1yLu52PXW/osZf94zmjcwwF0v2LEWz3tzpWHKHHpkzWf08y1M3Zo0j70rLDj1360EVV02TNju793sfrJp3LnfMPhTlrSd7pqLouuLTT492zFiSSPzLfd0Wn+SJ9kOJb5mL9yGh9d1fOmbrsKcx/dEV8v3t1jVTSKK6rXrvV53stv+/HtILP7lKmS3v6tHpD8mvv0uXyR2h30+/TEcq/6Cf+CSrnTipRPeNkXZvtGcPGjVBLxdHp5I+qFcef0MqvVM36w3dUn7QLs+y6w/SY/dP0OB6q8y9LrvM2J7FWu/vYttvib22WO/tv6dC/xqbFSnNrlila0qc3TlqtW+pc9agSeo/f4Hy9a7ef+rBhHlWkhWasVXD+xjruuRhjfjBVWqtmKzwe9GF9nYd3dNOvrMyQeLeVOq2o3iD5jvyroQ3F6hyQLVmX7pXzzmGEnqDuDXa4ph9KMpbL3oviq7LMf20Y3a0hKLBCvNzK8WnNXYti6rTnxwz5Vy/cL1+fJXzU+4uT4nPPcPvvuXeZp3+VPqKBv7Wms7Zul/577/fuhSbqtpYGP5TbBiPtT0lce9yb7f13V9q5pGb7emcO9FmPu3hvoc6pp9OasiRXd/3nAMAAJzZCLoAANAlrOBCPzNoDAAAgLMWw4sAAAAAAAACQNAFAAAAAAAgAAwvAgCcW3xzkvhIOidJshheBAAAcK4h6AIAAAAAABAAhhcBAAAAAAAEgKALAAAAAABAAAi6pMEtt9yinJwcczEAAAAAADiHEXQBAAAAAAAIAEEXAAAAAACAABB0AQAAAAAACABBF3TO8Ie1cc46bZx+v8abZQjexJka+sKTGv3CfeptluG09F75pEa/8KSGLhhmFgWmO7bZ9YYpZ611nAPKzLLTYa935Y1mgcOX2ripXh889KWxfJAeu/9OvXz/BH1P0sRJJXr5/jv1cukgo94ZLHeEfn//nXpslFnQFUJaPOtOvdxd2+/WYz+bJPk5mdOi8Kst+rl7KQAA5zyCLkAP0nvlkxq9dqZ6mQUAOu3nvz6k8VnZ2vrQ18wil+1NLZKk1uPWf88IBBbQxRJ+Tlb31o6WZk3b1KrZ7hIAAM5pBF3QOfse1PTVZZq+8XHtMMsQvO3r9cnt96r69id00izrwaI9Otx/S5Uz0azZfU4uuFfVt9+rT1buN4sC01Xb7N7236+mWdZxHl5nlgVn9kPHNG1whnY8mqV/NwvVohMRSZETOmAW2b5XeqdenjVCniYaNUEv31+ixblmAeIiWrb2D7rl8T/oJx+aZThzdPw5sXxN06flqiarSYt+/blZCADAOYugC4CuFdmtfbdbD9/Vt9+r2nBIA+ad7UNrehCj/fft0lnc/p9r2rVtirzVR9OrzDIfx06oVdKRpohZAiCq3c/J+fr2y9nS4Eb9dY5ZBgDAuem8vLy8r5wLCgoK1NDQoFOnTjkXd7ueul+SdMstt+j1119XU1OTWdQDjNOC6ffo8patmv7OJVp762hl2CVte5/VrDd3xqv2vd9VLrXp/ZfmauWxeBUNf1gbJ+bFXx/aqukVf3RUiJtRsk4lA+OvPduT4vt3YfS1zzZT0GvBUg0fG4q9btv1dLz3wMSZGjrvSmUorFpnD5FEyzVMOWt/qAGx1UV0eNUSNW2PVUiqTu+VT6pQFarekmtvx9JUYf/iH9t+ApHd2jdrvb6QT11nmcFsC4UrVL3gL/HXE2dq6LyhOrFqiU5NeVKF+fZyv3Wa2/W0VXJ6r3xShX3M9Ufb0FznjRrwQolyYq/9yzN2Pa1PjpRodEn0AMy2HaoTq17X+fNKlGOfn9jxOo6190pHGzjX4cOs67rOopJoM3M9ibdptkUnrrOE7R/dD3OdHV3b1j6p4l4d6++81szj7Gg9TuZxmuuymO0m+Vzfdi+XRdf20qab/Hq5JOd7pXfq5os+0BNrP5Jrl0dN0MvFWdq9sULLGu16ekO3vBnS76dfpky72oFKby+P75XeqZsdt1HVv6Fbyg/GXk6cVKL7xrTolcff0O9iSwfpsfsnqP+eCv3rtoh3HYbYdnNH6PfTL9ORyj/ow2GO90R8jsnexuDY60js+CwhLZ5VoitPeI+z1d4vVz3HOXevx5L4GA4axx5tb0cOEaPNLOb+W/zOQcfMYzCP0SGpfTPX598m1rmPb9R3m/Y5jba9b3v5rMt/v4LwpTZuOqTxytHyaZl6ziwGAOAcQ0+Xc8XAydp461Dtf6nMGha0vV4ZI+/RI8OjFe7QI8XS/15tl68uU8WhDF1+6zNa0NexnuiwotXP6v1PHcsNVsClXhWO9W3Lnulel+7QI3PsgJBdZ9VeebeZpN4rn9TwscdVG/0Vf9VuaewP47/gb1+vTyrCkvJ1cexX/WHKmekTcJk4U0Nf+KEGyNkr4HlpijPfyo0a8MIPNeB4hdFrwGe4Rn6JRs8bqhOrovUiyimx68WGCt2r2rC3J0K18wHZrOvLSizqaovbK9SUX+KTL8bqZXJx09PxeqErNdyZlNQOHmhXtM69ql71D13cbuLSVOzXqePGookzNdQOqES3WRvOV6FP4uCMsT/U6BLFjtXVtraLZl6vz1c9rcORkC6audQKTlSEpdBQhex60SE+1at2qy3+Vg/rgT/saNt71ZBzl/ucJ9lmSW2z7D6NNtoi2jvFk5A2v0Sj531TDe20hZ+TW3arTSFddG30c5H8tZ1T8qSG57xu13tahyP5KnRdZ/FhRdUVCS/aJM+5dW0X9nF+Rp7WYZ/nYOlLTRreJh24oNMBl5TlTdDL0y/SXx+3htQ8sSeiwcXuIUgTJ5Vo1H6r/JbH/6BbNn6g1rwJ3qSkHfhdueP9dmAhtk6f4TyDi+2g0ON/0C2Pv/H/b+/+g6Mq7z2Ofxwd8G5wE9MAQclsEjC3lJ8WRfnpMPiLiaODdIqNt4ZOQaSlM1c6N7UgjiNilVZsR1pE6IzQksq9RsY7ZNAil7kBQVFE+WE6CGHToAkhjclK9gZGxvvHObt7zrNnl82yS1J5v2bOjHueZ8+e85zDjOeb7/N91OAfo4enO17IR0/RFjuoEznGCwek8RUe9WICU7Slolh/q7Z/b3uTcm4sd/SLTSuatT3xS370GqLbbjVIatjuDiBMm15uB7gc/cwxKxypPxvnHxmbdMydPVXa6jg3+xr/7ByzyPSzO4rc43804B6zwpH68+JyjddBvRC91l3SZPe0tbmzf2AH22LnL/M37YCLXNf5hW43nh8r4CLHmP1FL7SPib+XWXGldtb7pNywps8w2wAAuPwQdLlsNKp2rSODpP4TBSUNyp9o73hVS4z6LJv2faywfCori/RJ1URdnyvp5Cfa5Ni7qdadwTJp8m0qVqNqHZkye97ZqI++9GnchAdiHVMx7SENKZbaah2Bk7qNavwgJN9N5bGXtg0vqP6DkHw3WS/J/ap+qOv9IX222shAuGe8fHEZH0fVVhX73K9qqgoU1HHHX9fPrfyTPgv5df09ZkDC/df9cyt3qc31kptBleUe1/RXfVYblPzjNdB8UQ/WOrI0/qrOoKT8wthLc8m35FNIX7zryOSo26hPjayC9JXp6nxJoX9ExzYy/o2O7JEzVbVqcwXMbKH9qncEzM69+6nC8qt/SaSDX772XdGx9/nbHffM2S8V9rkGj7ielzNVRuZGxsasTAVTi417FHnOpIKpZhDNfd/jxyI5X4GVPtKjZzu0X/XRfkcVOhqS/N/qcTHolO555Nne6J3d5TKjW6NypWMf9zdbsiik/dWxgEFdfVBd8utaRxC5bmetOyDSckRvN0oKBDTXsTvjXFkOTTrUKOUMK7Jf+v16/JYiqXG3K6uibucu7Q9JpbeYNW2a9MYqR5bGoUY1SBpc4A5I9NTc2VNU2rjbCBgV6b4b/eo6sMuRFdKkn29vkgJjogGtuZPHKCd0UC+bWSFpeqXGyEI5dFD7Q84xswIgtwc8MmkOua8hcm7uzKKQnq5xfI4eyxFwajmilw+ElHPjmNizMfBa5Sikv9U7rrPliP7NyGApzfdLoaDqHNcQ9+xl0bpdPoUU1qDhZgsAAJcfgi6Xiy87dMK141UtWVvpMd3H4fTnajX3pWSvPuu0s2vKEwVPJmpKwBcXmIl+N/e6Hi1F3e/WG+RTUJ3G1Ixzp9ol5etqxxtD9OVx0e804ia/wh/8yZjqcKdyi6Xw0XeTvNiVyV/mj3v5jmZtOIMWkhT6VCHXbwR1NhR7yc2kASOLJbWr25y+seGI2iT5BruDFm1HLhAIOPEPheX3zHLIhAErf2q8SCca/wRj1t7i7mdnAzmn6biu0RHc6Tn7/haXJ1+iOFNjNu1WXeuXwm1mhkiC4Ebcc5aiuhZHpk3Pnu34+5SO1O75gJHFqV/j8K/kl0+tx8yGLDJeclPV0J6ZQEEyDUcTZ5yosEjf9nusRqOQ6o6HJP+17ik7cQVVm/TzVX+JnwbTE6On6L5ASPvfMc5zdEClZpBBkboikYBWkUYHpK7jTcZ0qUwK6eQX7j3TRhQrR006lDSQkdq5JTqWtVJQroZGsqXs6x5fkbyIc0N7SPKP0aNeRaAvhR1XqVXSoCHmMu0AAFx+CLogatLkNapesMGxzVS6IYFNtZVafThsBV7s462f7MyYCSjvGjsw4/pNdx2YVPUr8Esq1jBzZRZHnY+Yo2rbaE/nMP6yLkmaViifpPCpZCvJFKu/3375Nn4zrtZEb0gSWIgLWlxI3UZ9+v1atdlTkazrjJ/mkzL/eI1wjlf+ftV/35EpYo+/76afGmPrrAvSe85UWdN2nPc+rghthscs8bPoDiimzR5zSy882338nmdWkZ5f/ANtcWyuuhu9yLswqtwv/VlRpOfvKDKyWSzTCnIl+TW+wj1mW1w1TbLAXorb+Ztm/Rkrm8QMQBkK/RqcdGwtpfl+K6vH+E1XrRjZWS2rdqvBNSZT4rKk6nbWWlO7/GP0aORYPZzCBgAAMoOgCyQ74LJolE/BulgNloq122T+fb0n9ryz0FX/xTfqEUfgpVEdX9qFeB11X6JbD5eiPtcWsotuxupsxDazaOedun7RePmCwfj6JYr91d/MCHGz/gKvYKzmhWszC9H2IfFZE6n4qz6LXJtdF8ervkpKktWsUWz8w856KM6tx1N0Mu/cymX2+Vj1RHzO2kFRGRyzhDwymtJR8i35ohlBvfBs/xPc88ywC72GnLU9rNovfVunTqaRwZOqubOtMfGaGmRleoRctUmcW1amy0QK1TZGauBY2xuN7m5WNomRBWRqCelUClOvrGynplg9F9dmFty1MotmrYrUzCnSfR6BFx2Knf8bjXYtHgIvAABccgRdEJvq8+XH2lpvtmXCXq2stgMveZE/FaY3jSgRr2lEiQxYWW7Xq3hBp+2MBXdBUntKQ9mtSepSeE+1SJk9bcSc2nOuzWPKSA+dOeIuEBtVOVIFZp2RdGx4wQ4ieI935fM1qqmp0cbHpppNKUowjahPOqq2eXbgJdn5XmDMEqp7V1+EpIKR5lSmRFOA0mHXjYlOz7vIZzstqd1zz38fleXe2TDHrspcTQmPF2srA6OHwYjRAZVKanjPXDUoBfZ346T4Up9US5P+FpJKy8wXcr+mDfNLjY1xK+NkTGRa0dYEY+KaRpRIp74ISTn5ua69cyenlw1jTfXxmOpksAJCRRqdtDitfW7OWjAe4qYRperQbjvwkvy7r9TYgZdr/fHnEc3q8QjcpGvGVxokqbX5SrMFAIDLDkEXxAIg19ygKZH/sR24WOvTnl70gJ6pWOwOpgycqLJrpHBH7E+Fm/Z9rPA1Y7UoYd2XHthQa9dpSZ5J0K9quYY5Cu5GC5KWO793VG27rKKz7iyYMhWsjBUuPbN1v8JxfVJhr5gU2q/TnjVoPIrF9kRkLB4yVloqL5aCsYKyqepXtTxulZyEdWNUqdH2Q5Pzr9OUXtjFHv/ico/skd52p643V4DyqLvSszFLJjYWzuNFC0BvvdgMkNhyzs4i1Ok/2+lK7Z5bhYEd/z6mPaQbyvMVjk+QkHZcrcOd0vCxZ82WHnnlnYPqUpFuN1aQefhGv7oOHOxZMOL0F+qSO7hhrVjjDpjEvcybSxK72C/1zmKrPRbS0+81SYEprtVtpk2fqvH+Cwcf0pd4WlGUXWjYXAXKza494yisO216ue67NpTW6kXW+Pv17RGR++LX4/PipxdFiuvGndto5zjaY+sfo0ddWSZ+PT7bUW/l0EHtD/k1viJ54GPadOcqUZa5ZUVGANCvx+eZx7Fqy+iLUFxwywoy2X2SBpBSN39q+NLXVAIAoI+6IhAIfO3cUVJSoubmZnV3dzt397q+el6SNGvWLO3atUttbW1mUx8wUVUVj2icPtbqpFN27H7XRD43qnbtJxq5YKYGHX4pWnDXWgra+b2YYF2llkQyZQYu1vr7xzrqRBjtUQ/oGY/gjnffC7OW8zV2Bmut6QmVj1o1XsxViezlfT2XjV403nEN7hWILHfq+v8sV4Fzl6S22lgh16Tn5KFf1XKNuMnxEuY437g2h/AHv3escBN7mfZuj11f2HGuipxvvnuM4q7BHEOHyudrdG+x1PX+b/XQs7tcbV7HTihu/GXcA3vsk4yl+xrtMZH9+/bzYN0r7/toudBz4b7fERcesx78ZuTZTdSeaGyNexx3Tkr2LHqfX+xarXaf8VxZz2h77Pw8xivKHBPPvsa/O9dYWOOglb+zlgE3rmP+k6e19NZ+2nx37sUtGx2ZbuLYZa5YM3f2D3TftcYKNfb3Tjn7GgGUrgO1ellT7aWCYyvXWEv+Rv4BN+mNVQc1dF65vn281qNgrT1tybEnen5e55DofOOCO02uc7Je5u2lj10r8Rg8xivKsYrP3NkegQybOb7u8bAZKwK5jte4W7NqpOcXT5HM1YVSYP5ew/a/6FCZx5iZvytzpShb3JiEtL/anDbkcSzFHy+uT9zKSPJ8JroOeD07znMz73e6zqt680lN+kehin9yKVcPAwCgbyLokgF9O+iC3ub5MgzgEjirt99s0fAGXv6AS2ZBp4KzzmnPrweqYofZCADA5YfpRQCAb6j+2vyuTypt0dsLzDYAmXdWb8/qkBr8BFwAALARdAEAfGOte3KgNjdIw2edVvUMsxVA5pxX9eYWDe8s0AoyywAAiCLoAgD4RvvFT4ZqT2dYo6aeN5sAZMqCM5qUm6fNc3K0zmwDAOAyRk2XDKCmCwAAAAAAMJHpAgAAAAAAkAUEXQAAAAAAALLAc3pRe3u7zp3rW4vbFhYW9snzinjmVyskSUt+udRsAgAAAAAAlyEyXQAAAAAAALIgYaZLZ2enc3ev68uFdCXphd+ukiQ9+u+LzSYAAAAAAHAZItMFAAAAAAAgCwi6AAAAAAAAZAFBFwAAAAAAgCwg6AIAAAAAAJAFBF0AAAAAAACygKALAAAAAABAFhB0AQAAAAAAyAKCLgAAAAAAAFlA0AUAAAAAACALCLoAAAAAAABkAUEXAAAAAACALCDoAgAAAAAAkAUEXQAAAAAAALKAoAsAAAAAAEAWEHQBAAAAAADIAoIuAAAAAAAAWUDQBQAAAAAAIAsIugAAAAAAAGTBFYFA4GvnjpKSErW3t+vcuXPO3b2usLCwT55XxDO/WiFJWvLLpWYTAAAAAAC4DJHpAgAAAAAAkAWemS7Nzc3q7u527u51ffW8AAAAAAAAvJDpAgAAAAAAkAUEXQAAAAAAALKAoAsAAAAAAEAWEHTBJTH/ydMKbu7SfLMBvWtBp4Jvduo5cz8AAAAA4KIRdOnDHizfoOqKxZpkNvyzWdCppbeGdex/crTObEPvWjtAezo7NIeAGAAAAABkHEEXZNeMLh2c1aHQu0N1+1qz8TJw3VMauWybbln2mgZf52yYrsE/26ZbHpzn3NkLrlTFnEIdy23T0j+cNRsBAAAAABeBoAuy6rnZbfJ3FujFJ680my4rZzqk4um9HWBJpL9u35Inlbbo7QVmGwAAAAAgXVcEAoGvnTtKSkrU3Nys7u5u5+5e11fPK2rEU6qeNlAfvb5Qn03YoPKhkYZG1a59Qpvi+gZin09uU0Xtq9Z/D1ys9fePlS/W6vblx1pdvUp77OlH5bmxz1Ls+611lVpSL0kTVVXxiMZ1blPFvutcxw4ffknz3tkrSZo0eY0WBT7V6urPdc+CmSr26NNjM7p08D/a1Lol4JnlUvj0x5o/sVVbZ9yhA9G9z+qHO+Yob+8Kvfj4eqOvP/pZxzdr+cOPxT7bzH4dnsdp1dYZm1X4+lLdlGs3dO7RuvsfVEu0Z4Zc95RG/vhmad/76pqQr/blixSS7EyXKhW31+i9TbHz8z+4TSNKY18/s2+ljry1M/q5/12vaVzZJ/roxb9ryLLZGpygnyTpu6t1S/mw2OcG92+5nVf15pOapAKtmMM0MAAAAADIBDJdMsqncfdvULm2qWJtpSrWvqSPvgyo3FGXZdLkNXZwptLus03BoTNVXf6A1eH0Ks1ba7XVnrSDLPbnirWVqnAGWHpi6ExV33+DjkZ+t65RvlGP6JkRjj7XjNWiBbepI1mfHpg/NSy/8rTfI+DSE1agRPrg2RItn2Ft61pn6ocL3f1ufPmEHVCx+z27R5q4VD972swwGa57dizV8E9W2MfbrGDuJM1/+VmjXybtVHvDMBXdNd1ssM1T8bJtGpH/vj5aPlPvLZ+p9/74vjShKn4KUt7NGrfsbv3fH+1+tcc1YEKVir8b69L/rtd0S3mhgpE+y2t0qnR2/LGirtTOep+UG9b0GWYbAAAAACAdBF0yLHz4pVjWivZqd2NYuiZPJZKkB3TPKJ/Chzdq5enIN17VkrpGaehtqhoY2ZcNjapduzD2u/WfKChpUP5EV69g3YX7pOa8po8ISw1X6xdmUw8NGeSXOg/rwPbYvpbHx+pPaxyd7tikKcOk4GuOrJntD+q/9oaUN3GObnR0laTgayWODJjHdPi4pIIiFRr9Mim0832pbLr6mw2S+t91twbruOpffELRyiqfP6Fj+7qk0ruNejDSqdrv6dTn9ocPP9IpSTkDIwGdeRoyIUdn9v0+1kfrFaw97nmsiHW7fAoprEHDzRYAAAAAQDoIumRYa7t7Ks6edxaqIjK9aMR3VKywjh41puu0dSgsn/IK3Lsz6ssOnXDteFVL1lYaU4cadaTe8fGifKVBuVKo9SqzoceaW0NS7iTNf31TwqBI4W2jlKdjOuwMxEhq+axV0iAV3uHcG1LbMedn6cDDJVqejelFTp8/oab2mzXEkZFima68shypoz0WcLGdPfSJzihH/+K68ONq/9D52fDdcRqsLrUdMqYbtbR7HMthx1VqlTRoyHmzBQAAAACQBoIul9Ck/IHRKUjVCxxbshouUMvjY7X8tWNW4GXHCS3bcULLjKlAQwb57WlDdntk+17fStsI1R/X4MlPeWa7qP3vcUGXiFgWy4X1H1goKUfFP96mW5Y5th/frAFmZwAAAABA1hB0uYT2tJ+WFHbUc3FvVuFbeFpzR7Sey9bjkobNcQVemltDko7F6rm4trHa5pia1Ks+rFFQ31Fegik+iXSdNrJWkjh7ukVSl6Oei3sLJsuSAQAAAABkDEGXS6mH04hOdDjrwaRmUtkNfSRr5iq1dkr+QV+ZDcktHB9dOSmRAw/bgRdHDRbvaUQXr/L5GtXU1GjjY1PNpjTtVMdRqWC0Y1Uh7VTH0S6pdJwc6zNJkvqP/o4GXGg6kelC04gSmfGVBklqbb68l/cGAAAAgEwh6HIpnV6lnSel4mlrUiqaa2XGBDR9snchWysoc4Om2MeaNHmNFo3qGyGX6Go4pd16zmyyWYGS4RoVWYVo4XaP6UDzNPP17UYh3Gc1apiktqZYDZY1m/VBp183PWb2vRhTNTTf+q+cm+9TpdmcprNvvamuCXfLGXs7+9abOqVhGuFcXei6pzR8Qo7O7Kuxl5lO0edPqKlBGlz+WsKiuV6s1aZ8ajXq3QAAAAAA0kPQ5RLbVFup1YcVX9fFsax0VP0TWn04LN+oRzz77XlnoWpPxmrELAp8qtVrtyloHKa3WKvhdGj8ArPFtuYOrdsbUvH3IvVXpK0zVuiDTmen9dp2/36NctVqmaO8vSu0/OHHjH4l2nrco65L2ktB79KKOnf54cxYr/aGHA3Ic+8LRpZ1dtRg6aqdqSNvpT61KCK0aaY+2qf4ui4/S1BPJrralF8VO8w2AAAAAEA6rggEAl87d5SUlKi5uVnd3d3O3b2ur54XknvuD42aU5qnzXfnXvTS0b2jUr+puVcloQ/12x+t0C6z+ZtiQaeCs85pz68HEnQBAAAAgAwh0wVZ9YuaAoXUoTl/SLQuT99W+fy9KlGXPnzlGxxw0Vm9PauDLBcAAAAAyDCCLsiuHTkasyVPKm3RwSfPm619149+o5qaGt1bfEL/Pfshrfhfs8M3xXlVb27R8M4CrfiJ98QjAAAAAEB6mF6ES2L+k6e1dIRPK+bkaJ3ZiN6zoFPBWfonnv4FAAAAAH0XQRcAAAAAAIAsYHoRAAAAAABAFhB0AQAAAAAAyIK46UUAAAAAAAC4eGS6AAAAAAAAZAFBFwAAAAAAgCwg6AIAAAAAAJAFBF0AAAAAAACygKALAAAAAABAFhB0AQAAAAAAyAKCLgAAAAAAAFlA0AUAAAAAACAL/h+iXWc4vecOvwAAAABJRU5ErkJggg==;" vertex="1" parent="1">
          <mxGeometry x="-873.1999969482422" y="169.5999755859375" width="1117" height="557" as="geometry" />
        </mxCell>
        <mxCell id="KVqwcnw02ynMnZTjOd9f-2" value="" style="endArrow=classic;html=1;rounded=0;strokeColor=#FF0000;" edge="1" parent="1">
          <mxGeometry width="50" height="50" relative="1" as="geometry">
            <mxPoint x="-181" y="248" as="sourcePoint" />
            <mxPoint x="-518" y="233" as="targetPoint" />
          </mxGeometry>
        </mxCell>
        <mxCell id="KVqwcnw02ynMnZTjOd9f-3" value="Code that is executed to authorize the request" style="text;html=1;align=center;verticalAlign=middle;whiteSpace=wrap;rounded=0;fontSize=18;" vertex="1" parent="1">
          <mxGeometry x="-177" y="219" width="212" height="57" as="geometry" />
        </mxCell>
        <mxCell id="KVqwcnw02ynMnZTjOd9f-4" value="" style="endArrow=classic;html=1;rounded=0;strokeColor=#FF0000;" edge="1" parent="1">
          <mxGeometry width="50" height="50" relative="1" as="geometry">
            <mxPoint x="42" y="680" as="sourcePoint" />
            <mxPoint x="-608" y="707" as="targetPoint" />
          </mxGeometry>
        </mxCell>
        <mxCell id="KVqwcnw02ynMnZTjOd9f-5" value="Returns the user that has made the request, indicating that the token is valid." style="text;html=1;align=center;verticalAlign=middle;whiteSpace=wrap;rounded=0;fontSize=18;" vertex="1" parent="1">
          <mxGeometry x="24" y="656" width="212" height="57" as="geometry" />
        </mxCell>
        <mxCell id="KVqwcnw02ynMnZTjOd9f-7" value="" style="endArrow=classic;html=1;rounded=0;strokeColor=#FF0000;" edge="1" parent="1">
          <mxGeometry width="50" height="50" relative="1" as="geometry">
            <mxPoint x="-10" y="400" as="sourcePoint" />
            <mxPoint x="-262" y="417" as="targetPoint" />
          </mxGeometry>
        </mxCell>
        <mxCell id="KVqwcnw02ynMnZTjOd9f-8" value="Returns the user making the request" style="text;html=1;align=center;verticalAlign=middle;whiteSpace=wrap;rounded=0;fontSize=18;" vertex="1" parent="1">
          <mxGeometry x="-47" y="363" width="212" height="57" as="geometry" />
        </mxCell>
        <mxCell id="KVqwcnw02ynMnZTjOd9f-9" value="" style="labelPosition=right;align=left;strokeWidth=1;shape=mxgraph.mockup.markup.curlyBrace;html=1;shadow=0;dashed=0;strokeColor=#FF0000;direction=north;flipH=1;" vertex="1" parent="1">
          <mxGeometry x="-175" y="615" width="20" height="55" as="geometry" />
        </mxCell>
        <mxCell id="KVqwcnw02ynMnZTjOd9f-10" value="Additional checks" style="text;html=1;align=center;verticalAlign=middle;whiteSpace=wrap;rounded=0;fontSize=18;" vertex="1" parent="1">
          <mxGeometry x="-158" y="613" width="148" height="57" as="geometry" />
        </mxCell>
        <mxCell id="KVqwcnw02ynMnZTjOd9f-13" value="" style="endArrow=classic;html=1;rounded=0;strokeColor=#FF0000;" edge="1" parent="1">
          <mxGeometry width="50" height="50" relative="1" as="geometry">
            <mxPoint x="-343" y="506" as="sourcePoint" />
            <mxPoint x="-532" y="536" as="targetPoint" />
          </mxGeometry>
        </mxCell>
        <mxCell id="KVqwcnw02ynMnZTjOd9f-14" value="Breaks the object from the JWT authentication object down into the user who made the request and the token associated with it." style="text;html=1;align=center;verticalAlign=middle;whiteSpace=wrap;rounded=0;fontSize=18;" vertex="1" parent="1">
          <mxGeometry x="-348" y="483" width="212" height="57" as="geometry" />
        </mxCell>
      </root>
    </mxGraphModel>
  </diagram>
</mxfile>
